<svg width="323" height="43" viewBox="0 0 323 43" fill="none" xmlns="http://www.w3.org/2000/svg">
<path d="M322.375 25.8742V7.33203C322.375 3.74218 319.465 0.832031 315.875 0.832031H20.9469C19.5687 0.832031 18.2261 1.27013 17.1131 2.08305L4.04118 11.6307C2.36561 12.8545 1.375 14.8048 1.375 16.8797V35.332C1.375 38.9219 4.28514 41.832 7.87499 41.832H303.05C304.439 41.832 305.791 41.3874 306.908 40.5633L319.733 31.1055C321.394 29.8803 322.375 27.9386 322.375 25.8742Z" fill="white"/>
<path d="M322.375 25.8742V7.33203C322.375 3.74218 319.465 0.832031 315.875 0.832031H20.9469C19.5687 0.832031 18.2261 1.27013 17.1131 2.08305L4.04118 11.6307C2.36561 12.8545 1.375 14.8048 1.375 16.8797V35.332C1.375 38.9219 4.28514 41.832 7.87499 41.832H303.05C304.439 41.832 305.791 41.3874 306.908 40.5633L319.733 31.1055C321.394 29.8803 322.375 27.9386 322.375 25.8742Z" fill="url(#paint0_linear_2531_1870)"/>
<path d="M322.375 25.8742V7.33203C322.375 3.74218 319.465 0.832031 315.875 0.832031H20.9469C19.5687 0.832031 18.2261 1.27013 17.1131 2.08305L4.04118 11.6307C2.36561 12.8545 1.375 14.8048 1.375 16.8797V35.332C1.375 38.9219 4.28514 41.832 7.87499 41.832H303.05C304.439 41.832 305.791 41.3874 306.908 40.5633L319.733 31.1055C321.394 29.8803 322.375 27.9386 322.375 25.8742Z" stroke="white"/>
<defs>
<linearGradient id="paint0_linear_2531_1870" x1="76.7783" y1="71.3547" x2="375.216" y2="-20.1602" gradientUnits="userSpaceOnUse">
<stop stop-color="#9945FF"/>
<stop offset="0.496142" stop-color="#FD76FF"/>
<stop offset="1" stop-color="#FCFF76"/>
</linearGradient>
</defs>
</svg>
