<svg width="37" height="58" viewBox="0 0 37 58" fill="none" xmlns="http://www.w3.org/2000/svg">
<path fill-rule="evenodd" clip-rule="evenodd" d="M20.2127 0.708274C19.1133 0.932228 17.4642 3.09032 17.4642 4.31189C17.4642 4.5562 17.3827 4.82087 17.3013 4.92267C17.0773 5.18734 16.5073 7.12149 16.3444 8.18018C16.263 8.62809 15.9779 9.7275 15.6929 10.6233C15.4079 11.5191 15.1636 12.3335 15.1228 12.4557C14.9396 13.27 14.736 13.9215 14.6139 14.0844C14.4306 14.3287 14.1252 15.4485 14.1863 15.6725C14.2067 15.7743 14.0438 16.0797 13.8402 16.3851C13.6162 16.6904 13.3923 17.2605 13.3109 17.6677C13.2294 18.0952 13.0055 18.6449 12.7815 18.9096C12.5372 19.2354 12.4354 19.6018 12.4965 19.9072C12.5779 20.2533 12.5575 20.3144 12.415 20.1108C12.2522 19.9072 12.1504 19.948 11.906 20.3144C11.7228 20.5587 11.621 20.8438 11.6617 20.9048C11.7228 20.9863 11.621 21.1695 11.4581 21.312C11.2953 21.4545 11.1527 21.6989 11.1527 21.8617C11.1527 22.1875 11.0102 22.3707 9.78866 23.7145C9.30003 24.2438 8.9132 24.7731 8.9132 24.9157C8.9132 25.0582 8.83177 25.1803 8.70961 25.1803C8.60781 25.1803 8.22098 25.4857 7.85451 25.8522C6.63294 27.0738 5.30958 27.8271 3.68082 28.2342C2.80537 28.4582 2.01135 28.7636 1.88919 28.9061C1.7874 29.069 1.44129 29.2522 1.11554 29.3337C0.606549 29.4558 0.565831 29.5373 0.606549 30.4331C0.667628 31.2678 0.728704 31.39 1.07481 31.3289C1.3327 31.2882 1.33949 31.3628 1.09518 31.5528C0.341882 32.1229 0.810149 32.4079 2.52034 32.4486C3.3958 32.469 4.2916 32.4894 4.4952 32.5097C4.69879 32.5301 5.4521 32.8558 6.16468 33.2427C7.30481 33.8331 7.48804 33.8738 7.48804 33.5684C7.5084 33.3445 7.6102 33.4463 7.79343 33.8331C7.93595 34.1588 8.07847 34.3624 8.07847 34.281C8.09883 34.1792 8.40422 34.3217 8.75033 34.5864C9.1168 34.8511 9.74795 35.2379 10.1551 35.4618C10.5623 35.6858 11.2138 36.0319 11.5803 36.2559C12.5983 36.8056 16.1204 39.2894 16.2019 39.4727C16.2426 39.5745 16.3851 39.7577 16.5276 39.9002C18.4414 41.9158 19.9277 45.3769 20.2127 48.4919C20.2738 49.2656 20.2534 50.7314 20.1516 51.7494C20.0091 52.9099 20.0091 53.6632 20.1313 53.8261C20.2534 53.9482 20.2534 54.1111 20.1516 54.1722C19.9277 54.3147 20.0295 55.7806 20.3552 56.88C20.5995 57.7554 21.0882 58.1626 21.3325 57.7351C21.4546 57.5722 21.5157 57.5926 21.5971 57.7758C21.6989 58.0201 21.8211 57.165 21.76 56.6357C21.7397 56.371 23.572 55.1087 23.9792 55.1087C24.4068 55.0884 24.9768 53.8668 24.7936 53.3578C24.6918 53.1339 24.6918 52.8285 24.7732 52.6859C24.8546 52.5638 24.875 51.9937 24.7936 51.444C24.7121 50.8943 24.7325 50.3243 24.8139 50.1817C24.9157 50.0392 24.9361 49.3877 24.8954 48.7362C24.7936 47.535 25.0379 45.9877 25.3433 45.7637C25.4247 45.7027 25.5265 45.2547 25.5672 44.7661C25.5876 44.2978 25.7912 43.5649 25.9948 43.1374C26.2187 42.7302 26.5241 42.0787 26.7074 41.7122C26.8702 41.3661 27.1145 41.0607 27.2163 41.0607C27.3385 41.0607 27.4403 40.9182 27.4403 40.7553C27.4403 40.5721 27.6643 40.0834 27.9493 39.6559C28.214 39.208 28.499 38.6176 28.5804 38.3325C28.6415 38.0271 28.784 37.7421 28.8858 37.681C28.9876 37.6199 29.0691 37.4164 29.0691 37.2128C29.0691 37.0295 29.2727 36.6427 29.5373 36.378C29.7816 36.093 30.0056 35.8283 30.0056 35.7672C30.1685 35.1768 30.3721 34.7493 30.4942 34.7493C30.5757 34.7493 30.7385 34.505 30.8607 34.2199C31.0032 33.9349 31.1864 33.7517 31.2882 33.8127C31.39 33.8738 31.5733 33.6499 31.6954 33.3241C31.7972 32.978 32.0008 32.7133 32.1026 32.7133C32.2248 32.7133 32.3266 32.5708 32.3266 32.4079C32.3266 32.2451 32.4284 32.1025 32.5302 32.1025C32.6523 32.1025 32.7338 31.9804 32.7338 31.8379C32.7338 31.7157 33.202 31.1049 33.7517 30.5145C34.3218 29.9241 34.7697 29.3133 34.7697 29.1504C34.7697 28.9875 34.8511 28.845 34.9529 28.845C35.2787 28.845 36.8057 27.2163 36.8057 26.8702C36.8057 26.2187 35.9098 25.6486 33.6907 24.8953C31.5733 24.1624 29.802 23.3073 29.5577 22.9204C29.4966 22.8186 29.3745 22.7779 29.2727 22.839C29.1912 22.9001 29.008 22.7983 28.8655 22.6354C28.723 22.4725 28.499 22.33 28.3565 22.33C27.9697 22.33 25.3229 20.233 24.305 19.1132C24.0606 18.8689 23.6738 18.4617 23.4295 18.2174C23.1648 17.9731 22.9612 17.6677 22.9612 17.5252C22.9612 17.403 22.8391 17.1791 22.6762 17.0569C22.5133 16.9144 22.3301 16.5479 22.2487 16.2425C22.1876 15.9575 21.9025 15.4282 21.6379 15.1228C21.3528 14.797 21.1289 14.3084 21.1289 14.0437C21.1289 13.7994 21.0474 13.5754 20.966 13.5754C20.8642 13.5754 20.7828 13.4533 20.7828 13.3108C20.7624 13.1886 20.742 12.6593 20.7013 12.1503C20.681 11.6413 20.5588 11.173 20.457 11.0916C20.3145 11.0102 20.3145 10.8676 20.4774 10.664C20.681 10.4401 20.6606 10.3179 20.4367 10.1347C20.2534 9.97182 20.2127 9.70714 20.2941 9.23888C20.3756 8.89277 20.3349 8.34306 20.2331 8.01731C20.0702 7.63048 20.0905 7.34545 20.2534 7.10113C20.3959 6.85682 20.4163 6.61251 20.2738 6.38855C20.1516 6.14424 20.1516 5.79813 20.2941 5.37058C20.4163 5.00411 20.5181 4.53584 20.5181 4.31189C20.5181 3.96578 20.6606 2.45918 20.7624 1.60408C20.7828 1.48193 20.8642 1.35977 20.966 1.35977C21.2307 1.35977 21.1492 0.810071 20.8846 0.708274C20.742 0.667555 20.4367 0.667555 20.2127 0.708274ZM17.2606 16.0797C17.2606 16.2629 17.7085 17.3216 18.2378 18.4006C18.4211 18.7671 18.6654 18.9911 18.8283 18.93C19.0319 18.8485 19.0522 18.9707 18.9708 19.4186C18.8893 19.8258 18.9504 20.1312 19.1744 20.3551C19.3576 20.518 19.5001 20.7623 19.5001 20.8845C19.5001 21.0066 19.6426 21.1084 19.8055 21.1084C19.9684 21.1084 20.1109 21.251 20.1109 21.4342C20.1109 21.9432 22.3504 24.142 23.0427 24.3252C23.5109 24.4678 23.6534 24.6103 23.6127 24.8953C23.572 25.0989 23.5924 25.2211 23.6942 25.1396C23.7756 25.0378 23.9588 25.16 24.1217 25.3839C24.2846 25.6079 24.5289 25.7911 24.6511 25.7911C24.7936 25.7911 25.0175 25.9743 25.16 26.1983C25.3026 26.4223 25.5265 26.6055 25.6894 26.6055C25.8319 26.6055 26.0762 26.748 26.2187 26.9109C26.5038 27.257 28.9266 28.4989 28.7637 28.2139C28.5804 27.9492 29.5373 27.3995 29.7817 27.6438C29.9242 27.7863 29.9038 27.8881 29.7206 28.0103C29.5373 28.1324 29.5781 28.275 29.9038 28.6618C30.2092 28.9875 30.3721 29.069 30.4331 28.8857C30.4942 28.7636 30.6164 28.6414 30.7385 28.6414C30.8607 28.6414 30.9014 28.7839 30.82 28.9468C30.7589 29.1301 30.82 29.2522 31.0236 29.2522C31.2272 29.2522 31.0439 29.5576 30.5146 30.1073C30.0463 30.5552 29.6799 31.0235 29.6799 31.1253C29.6799 31.2271 29.4559 31.5325 29.1912 31.7971C28.3565 32.6319 27.6439 33.6499 27.6439 34.0163C27.6439 34.1996 27.5625 34.3014 27.4403 34.2403C27.3182 34.1792 27.2978 34.2606 27.3589 34.4235C27.4403 34.6068 27.3385 34.79 27.1553 34.8714C26.972 34.9325 26.8295 35.0547 26.8295 35.1565C26.8295 35.2379 26.4223 35.9301 25.9134 36.6834C25.4044 37.4571 24.8343 38.4954 24.6511 39.0044C24.3253 39.8595 23.5109 40.8367 23.1037 40.8571C23.0223 40.8571 22.778 40.5721 22.5744 40.226C22.3301 39.8188 22.1468 39.6966 22.0858 39.8798C22.0247 40.0224 21.9636 39.9409 21.9636 39.6763C21.9433 38.923 21.1492 37.7828 19.8055 36.5409C18.4211 35.2583 17.4642 34.4439 16.7516 33.9756C16.3037 33.6906 15.7336 33.263 15.4893 33.0391C15.2246 32.8151 15.021 32.7133 15.021 32.7948C15.021 32.8762 14.7156 32.7337 14.3695 32.469C13.4126 31.7972 12.4354 31.2882 12.0486 31.2882C11.8857 31.2882 11.6006 31.1456 11.4174 30.9828C11.2545 30.7995 10.8474 30.5959 10.5216 30.5349C10.2162 30.4738 9.91082 30.3109 9.84974 30.148C9.78867 29.9852 9.60543 29.863 9.44256 29.863C9.27968 29.863 8.81141 29.6798 8.42458 29.4355C7.75272 29.0486 7.712 28.9875 8.03775 28.6821C8.22098 28.4786 8.4653 28.336 8.58746 28.336C8.70961 28.336 8.83176 28.1324 8.87248 27.8678C8.9132 27.6031 9.07608 27.4199 9.30004 27.4199C9.64615 27.4199 11.3563 25.7097 11.3563 25.3432C11.3563 25.2618 11.4785 25.1803 11.621 25.1803C11.7635 25.1803 12.0078 24.8546 12.1503 24.4677C12.2929 24.0809 12.4761 23.7552 12.5779 23.7552C12.6797 23.7552 12.7001 23.6127 12.639 23.4091C12.5575 23.2055 12.5983 23.124 12.7204 23.2055C12.9037 23.3276 13.433 22.5132 13.4941 22.0246C13.4941 21.9025 13.6162 21.8414 13.7587 21.8617C13.8809 21.9025 13.942 21.7803 13.8809 21.6174C13.7995 21.4342 13.8809 21.312 14.0845 21.312C14.2677 21.312 14.4103 21.1492 14.4103 20.9659C14.4103 20.7827 14.5528 20.4569 14.736 20.2737C14.9192 20.0701 15.0821 19.6629 15.0821 19.3779C15.0821 19.0928 15.1432 18.8689 15.245 18.8689C15.3468 18.8689 15.4282 18.7467 15.4282 18.5839C15.4282 18.4414 15.5504 18.197 15.6929 18.0749C15.8558 17.9527 16.1408 17.2605 16.3648 16.5276C16.6905 15.3467 16.772 15.2246 16.9959 15.53C17.1384 15.7335 17.2606 15.9779 17.2606 16.0797ZM20.457 20.6198C20.3959 20.6809 20.2127 20.7012 20.0702 20.6402C19.9073 20.5791 19.9684 20.518 20.1923 20.518C20.4163 20.4977 20.5385 20.5587 20.457 20.6198ZM22.1469 22.6558C22.1469 23.0222 22.0654 23.0222 21.6582 22.554C21.4275 22.2961 21.4478 22.2011 21.7193 22.2689C21.9636 22.33 22.1469 22.5132 22.1469 22.6558ZM28.9062 27.6642C28.7637 27.8067 28.6619 27.8271 28.6619 27.7049C28.6619 27.4199 28.9062 27.1755 29.0487 27.3181C29.0894 27.3791 29.0283 27.542 28.9062 27.6642ZM30.4942 28.2342C30.4942 28.336 30.3924 28.4378 30.2703 28.4378C30.1685 28.4378 30.1278 28.336 30.1888 28.2342C30.2499 28.1121 30.3517 28.0306 30.4128 28.0306C30.4535 28.0306 30.4942 28.1121 30.4942 28.2342ZM31.7158 28.2342C31.9805 28.3971 31.9805 28.4582 31.6751 28.7839C31.4715 28.9672 31.3086 29.0283 31.3086 28.9061C31.3086 28.784 31.1661 28.5193 30.9828 28.3564C30.6978 28.051 30.6978 28.0306 31.0439 28.0306C31.2475 28.0306 31.5529 28.1324 31.7158 28.2342ZM5.04491 31.8989C5.04491 32.0007 4.94311 32.1025 4.82096 32.1025C4.71916 32.1025 4.67844 32.0007 4.73952 31.8989C4.80059 31.7768 4.9024 31.6953 4.96348 31.6953C5.0042 31.6953 5.04491 31.7768 5.04491 31.8989ZM5.79821 32.2247C5.73713 32.2858 5.55389 32.3061 5.41138 32.2451C5.2485 32.184 5.30959 32.1229 5.53354 32.1229C5.75749 32.1025 5.87965 32.1636 5.79821 32.2247ZM7.99703 32.7133C8.07847 32.8355 7.87487 32.9169 7.54912 32.8966C7.04013 32.8966 7.01977 32.8762 7.38624 32.7133C7.6102 32.6115 7.8138 32.5301 7.83415 32.5301C7.85451 32.5097 7.93595 32.5912 7.99703 32.7133ZM11.9671 35.4618C11.8246 35.6451 11.6617 35.7265 11.5803 35.6654C11.5192 35.6044 11.6007 35.4618 11.7635 35.36C12.1911 35.075 12.2522 35.1157 11.9671 35.4618ZM13.7384 36.093C14.3492 36.7649 14.2474 37.1517 13.5959 36.6223C13.3109 36.4187 12.9851 36.2762 12.8426 36.3169C12.7001 36.378 12.6593 36.2559 12.7204 35.9912C12.8629 35.4211 13.148 35.4619 13.7384 36.093Z" fill="#49B8E8"/>
</svg>
