<svg width="37" height="58" viewBox="0 0 37 58" fill="none" xmlns="http://www.w3.org/2000/svg">
<path fill-rule="evenodd" clip-rule="evenodd" d="M20.2127 0.479758C19.1133 0.703712 17.4642 2.8618 17.4642 4.08337C17.4642 4.32768 17.3827 4.59236 17.3013 4.69415C17.0773 4.95883 16.5073 6.89298 16.3444 7.95167C16.263 8.39957 15.9779 9.49899 15.6929 10.3948C15.4079 11.2906 15.1636 12.105 15.1228 12.2272C14.9396 13.0415 14.736 13.693 14.6139 13.8559C14.4306 14.1002 14.1252 15.22 14.1863 15.444C14.2067 15.5458 14.0438 15.8511 13.8402 16.1565C13.6162 16.4619 13.3923 17.032 13.3109 17.4392C13.2294 17.8667 13.0055 18.4164 12.7815 18.6811C12.5372 19.0069 12.4354 19.3733 12.4965 19.6787C12.5779 20.0248 12.5575 20.0859 12.415 19.8823C12.2522 19.6787 12.1504 19.7194 11.906 20.0859C11.7228 20.3302 11.621 20.6152 11.6617 20.6763C11.7228 20.7578 11.621 20.941 11.4581 21.0835C11.2953 21.226 11.1527 21.4703 11.1527 21.6332C11.1527 21.959 11.0102 22.1422 9.78866 23.4859C9.30003 24.0153 8.9132 24.5446 8.9132 24.6871C8.9132 24.8297 8.83177 24.9518 8.70961 24.9518C8.60781 24.9518 8.22098 25.2572 7.85451 25.6237C6.63294 26.8452 5.30958 27.5985 3.68082 28.0057C2.80537 28.2297 2.01135 28.5351 1.88919 28.6776C1.7874 28.8405 1.44129 29.0237 1.11554 29.1051C0.606549 29.2273 0.565831 29.3087 0.606549 30.2046C0.667628 31.0393 0.728704 31.1614 1.07481 31.1004C1.3327 31.0596 1.33949 31.1343 1.09518 31.3243C0.341882 31.8944 0.810149 32.1794 2.52034 32.2201C3.3958 32.2405 4.2916 32.2608 4.4952 32.2812C4.69879 32.3016 5.4521 32.6273 6.16468 33.0142C7.30481 33.6046 7.48804 33.6453 7.48804 33.3399C7.5084 33.1159 7.6102 33.2177 7.79343 33.6046C7.93595 33.9303 8.07847 34.1339 8.07847 34.0525C8.09883 33.9507 8.40422 34.0932 8.75033 34.3579C9.1168 34.6225 9.74795 35.0094 10.1551 35.2333C10.5623 35.4573 11.2138 35.8034 11.5803 36.0274C12.5983 36.5771 16.1204 39.0609 16.2019 39.2441C16.2426 39.3459 16.3851 39.5292 16.5276 39.6717C18.4414 41.6873 19.9277 45.1484 20.2127 48.2634C20.2738 49.037 20.2534 50.5029 20.1516 51.5209C20.0091 52.6814 20.0091 53.4347 20.1313 53.5976C20.2534 53.7197 20.2534 53.8826 20.1516 53.9437C19.9277 54.0862 20.0295 55.5521 20.3552 56.6515C20.5995 57.5269 21.0882 57.9341 21.3325 57.5066C21.4546 57.3437 21.5157 57.3641 21.5971 57.5473C21.6989 57.7916 21.8211 56.9365 21.76 56.4072C21.7397 56.1425 23.572 54.8802 23.9792 54.8802C24.4068 54.8598 24.9768 53.6383 24.7936 53.1293C24.6918 52.9053 24.6918 52.5999 24.7732 52.4574C24.8546 52.3353 24.875 51.7652 24.7936 51.2155C24.7121 50.6658 24.7325 50.0957 24.8139 49.9532C24.9157 49.8107 24.9361 49.1592 24.8954 48.5077C24.7936 47.3065 25.0379 45.7592 25.3433 45.5352C25.4247 45.4741 25.5265 45.0262 25.5672 44.5376C25.5876 44.0693 25.7912 43.3364 25.9948 42.9088C26.2187 42.5017 26.5241 41.8502 26.7074 41.4837C26.8702 41.1376 27.1145 40.8322 27.2163 40.8322C27.3385 40.8322 27.4403 40.6897 27.4403 40.5268C27.4403 40.3436 27.6643 39.8549 27.9493 39.4274C28.214 38.9795 28.499 38.389 28.5804 38.104C28.6415 37.7986 28.784 37.5136 28.8858 37.4525C28.9876 37.3914 29.0691 37.1878 29.0691 36.9842C29.0691 36.801 29.2727 36.4142 29.5373 36.1495C29.7816 35.8645 30.0056 35.5998 30.0056 35.5387C30.1685 34.9483 30.3721 34.5207 30.4942 34.5207C30.5757 34.5207 30.7385 34.2764 30.8607 33.9914C31.0032 33.7064 31.1864 33.5231 31.2882 33.5842C31.39 33.6453 31.5733 33.4213 31.6954 33.0956C31.7972 32.7495 32.0008 32.4848 32.1026 32.4848C32.2248 32.4848 32.3266 32.3423 32.3266 32.1794C32.3266 32.0165 32.4284 31.874 32.5302 31.874C32.6523 31.874 32.7338 31.7519 32.7338 31.6093C32.7338 31.4872 33.202 30.8764 33.7517 30.286C34.3218 29.6956 34.7697 29.0848 34.7697 28.9219C34.7697 28.759 34.8511 28.6165 34.9529 28.6165C35.2787 28.6165 36.8057 26.9878 36.8057 26.6417C36.8057 25.9901 35.9098 25.4201 33.6907 24.6668C31.5733 23.9338 29.802 23.0787 29.5577 22.6919C29.4966 22.5901 29.3745 22.5494 29.2727 22.6105C29.1912 22.6715 29.008 22.5698 28.8655 22.4069C28.723 22.244 28.499 22.1015 28.3565 22.1015C27.9697 22.1015 25.3229 20.0045 24.305 18.8847C24.0606 18.6404 23.6738 18.2332 23.4295 17.9889C23.1648 17.7446 22.9612 17.4392 22.9612 17.2967C22.9612 17.1745 22.8391 16.9506 22.6762 16.8284C22.5133 16.6859 22.3301 16.3194 22.2487 16.014C22.1876 15.729 21.9025 15.1996 21.6379 14.8942C21.3528 14.5685 21.1289 14.0799 21.1289 13.8152C21.1289 13.5709 21.0474 13.3469 20.966 13.3469C20.8642 13.3469 20.7828 13.2248 20.7828 13.0823C20.7624 12.9601 20.742 12.4307 20.7013 11.9218C20.681 11.4128 20.5588 10.9445 20.457 10.8631C20.3145 10.7816 20.3145 10.6391 20.4774 10.4355C20.681 10.2116 20.6606 10.0894 20.4367 9.90618C20.2534 9.74331 20.2127 9.47863 20.2941 9.01036C20.3756 8.66425 20.3349 8.11454 20.2331 7.78879C20.0702 7.40196 20.0905 7.11693 20.2534 6.87262C20.3959 6.6283 20.4163 6.38399 20.2738 6.16004C20.1516 5.91572 20.1516 5.56961 20.2941 5.14206C20.4163 4.77559 20.5181 4.30732 20.5181 4.08337C20.5181 3.73726 20.6606 2.23066 20.7624 1.37557C20.7828 1.25341 20.8642 1.13125 20.966 1.13125C21.2307 1.13125 21.1492 0.581555 20.8846 0.479758C20.742 0.439039 20.4367 0.439039 20.2127 0.479758ZM17.2606 15.8511C17.2606 16.0344 17.7085 17.0931 18.2378 18.1721C18.4211 18.5386 18.6654 18.7625 18.8283 18.7015C19.0319 18.62 19.0522 18.7422 18.9708 19.1901C18.8893 19.5973 18.9504 19.9027 19.1744 20.1266C19.3576 20.2895 19.5001 20.5338 19.5001 20.656C19.5001 20.7781 19.6426 20.8799 19.8055 20.8799C19.9684 20.8799 20.1109 21.0224 20.1109 21.2057C20.1109 21.7147 22.3504 23.9135 23.0427 24.0967C23.5109 24.2392 23.6534 24.3818 23.6127 24.6668C23.572 24.8704 23.5924 24.9925 23.6942 24.9111C23.7756 24.8093 23.9588 24.9314 24.1217 25.1554C24.2846 25.3794 24.5289 25.5626 24.6511 25.5626C24.7936 25.5626 25.0175 25.7458 25.16 25.9698C25.3026 26.1937 25.5265 26.377 25.6894 26.377C25.8319 26.377 26.0762 26.5195 26.2187 26.6824C26.5038 27.0285 28.9266 28.2704 28.7637 27.9854C28.5804 27.7207 29.5373 27.171 29.7817 27.4153C29.9242 27.5578 29.9038 27.6596 29.7206 27.7818C29.5373 27.9039 29.5781 28.0464 29.9038 28.4333C30.2092 28.759 30.3721 28.8405 30.4331 28.6572C30.4942 28.5351 30.6164 28.4129 30.7385 28.4129C30.8607 28.4129 30.9014 28.5554 30.82 28.7183C30.7589 28.9015 30.82 29.0237 31.0236 29.0237C31.2272 29.0237 31.0439 29.3291 30.5146 29.8788C30.0463 30.3267 29.6799 30.795 29.6799 30.8968C29.6799 30.9986 29.4559 31.304 29.1912 31.5686C28.3565 32.4034 27.6439 33.4213 27.6439 33.7878C27.6439 33.971 27.5625 34.0728 27.4403 34.0118C27.3182 33.9507 27.2978 34.0321 27.3589 34.195C27.4403 34.3782 27.3385 34.5615 27.1553 34.6429C26.972 34.704 26.8295 34.8261 26.8295 34.9279C26.8295 35.0094 26.4223 35.7016 25.9134 36.4549C25.4044 37.2286 24.8343 38.2669 24.6511 38.7759C24.3253 39.631 23.5109 40.6082 23.1037 40.6286C23.0223 40.6286 22.778 40.3436 22.5744 39.9974C22.3301 39.5903 22.1468 39.4681 22.0858 39.6513C22.0247 39.7938 21.9636 39.7124 21.9636 39.4477C21.9433 38.6944 21.1492 37.5543 19.8055 36.3124C18.4211 35.0297 17.4642 34.2154 16.7516 33.7471C16.3037 33.4621 15.7336 33.0345 15.4893 32.8106C15.2246 32.5866 15.021 32.4848 15.021 32.5662C15.021 32.6477 14.7156 32.5052 14.3695 32.2405C13.4126 31.5686 12.4354 31.0596 12.0486 31.0596C11.8857 31.0596 11.6006 30.9171 11.4174 30.7542C11.2545 30.571 10.8474 30.3674 10.5216 30.3064C10.2162 30.2453 9.91082 30.0824 9.84974 29.9195C9.78867 29.7566 9.60543 29.6345 9.44256 29.6345C9.27968 29.6345 8.81141 29.4513 8.42458 29.2069C7.75272 28.8201 7.712 28.759 8.03775 28.4536C8.22098 28.25 8.4653 28.1075 8.58746 28.1075C8.70961 28.1075 8.83176 27.9039 8.87248 27.6393C8.9132 27.3746 9.07608 27.1913 9.30004 27.1913C9.64615 27.1913 11.3563 25.4812 11.3563 25.1147C11.3563 25.0333 11.4785 24.9518 11.621 24.9518C11.7635 24.9518 12.0078 24.6261 12.1503 24.2392C12.2929 23.8524 12.4761 23.5266 12.5779 23.5266C12.6797 23.5266 12.7001 23.3841 12.639 23.1805C12.5575 22.977 12.5983 22.8955 12.7204 22.977C12.9037 23.0991 13.433 22.2847 13.4941 21.7961C13.4941 21.6739 13.6162 21.6129 13.7587 21.6332C13.8809 21.6739 13.942 21.5518 13.8809 21.3889C13.7995 21.2057 13.8809 21.0835 14.0845 21.0835C14.2677 21.0835 14.4103 20.9206 14.4103 20.7374C14.4103 20.5542 14.5528 20.2284 14.736 20.0452C14.9192 19.8416 15.0821 19.4344 15.0821 19.1494C15.0821 18.8643 15.1432 18.6404 15.245 18.6404C15.3468 18.6404 15.4282 18.5182 15.4282 18.3554C15.4282 18.2128 15.5504 17.9685 15.6929 17.8464C15.8558 17.7242 16.1408 17.032 16.3648 16.299C16.6905 15.1182 16.772 14.996 16.9959 15.3014C17.1384 15.505 17.2606 15.7493 17.2606 15.8511ZM20.457 20.3913C20.3959 20.4524 20.2127 20.4727 20.0702 20.4117C19.9073 20.3506 19.9684 20.2895 20.1923 20.2895C20.4163 20.2691 20.5385 20.3302 20.457 20.3913ZM22.1469 22.4272C22.1469 22.7937 22.0654 22.7937 21.6582 22.3254C21.4275 22.0676 21.4478 21.9725 21.7193 22.0404C21.9636 22.1015 22.1469 22.2847 22.1469 22.4272ZM28.9062 27.4357C28.7637 27.5782 28.6619 27.5985 28.6619 27.4764C28.6619 27.1914 28.9062 26.947 29.0487 27.0895C29.0894 27.1506 29.0283 27.3135 28.9062 27.4357ZM30.4942 28.0057C30.4942 28.1075 30.3924 28.2093 30.2703 28.2093C30.1685 28.2093 30.1278 28.1075 30.1888 28.0057C30.2499 27.8836 30.3517 27.8021 30.4128 27.8021C30.4535 27.8021 30.4942 27.8836 30.4942 28.0057ZM31.7158 28.0057C31.9805 28.1686 31.9805 28.2297 31.6751 28.5554C31.4715 28.7387 31.3086 28.7998 31.3086 28.6776C31.3086 28.5554 31.1661 28.2908 30.9828 28.1279C30.6978 27.8225 30.6978 27.8021 31.0439 27.8021C31.2475 27.8021 31.5529 27.9039 31.7158 28.0057ZM5.04491 31.6704C5.04491 31.7722 4.94311 31.874 4.82096 31.874C4.71916 31.874 4.67844 31.7722 4.73952 31.6704C4.80059 31.5483 4.9024 31.4668 4.96348 31.4668C5.0042 31.4668 5.04491 31.5483 5.04491 31.6704ZM5.79821 31.9962C5.73713 32.0573 5.55389 32.0776 5.41138 32.0165C5.2485 31.9555 5.30959 31.8944 5.53354 31.8944C5.75749 31.874 5.87965 31.9351 5.79821 31.9962ZM7.99703 32.4848C8.07847 32.607 7.87487 32.6884 7.54912 32.668C7.04013 32.668 7.01977 32.6477 7.38624 32.4848C7.6102 32.383 7.8138 32.3016 7.83415 32.3016C7.85451 32.2812 7.93595 32.3626 7.99703 32.4848ZM11.9671 35.2333C11.8246 35.4166 11.6617 35.498 11.5803 35.4369C11.5192 35.3758 11.6007 35.2333 11.7635 35.1315C12.1911 34.8465 12.2522 34.8872 11.9671 35.2333ZM13.7384 35.8645C14.3492 36.5363 14.2474 36.9232 13.5959 36.3938C13.3109 36.1902 12.9851 36.0477 12.8426 36.0884C12.7001 36.1495 12.6593 36.0274 12.7204 35.7627C12.8629 35.1926 13.148 35.2333 13.7384 35.8645Z" fill="#3C4EF2"/>
</svg>
