<svg width="37" height="58" viewBox="0 0 37 58" fill="none" xmlns="http://www.w3.org/2000/svg">
<path fill-rule="evenodd" clip-rule="evenodd" d="M20.2127 0.251242C19.1133 0.475196 17.4642 2.63329 17.4642 3.85486C17.4642 4.09917 17.3827 4.36384 17.3013 4.46564C17.0773 4.73031 16.5073 6.66446 16.3444 7.72315C16.263 8.17106 15.9779 9.27047 15.6929 10.1663C15.4079 11.0621 15.1636 11.8765 15.1228 11.9986C14.9396 12.813 14.736 13.4645 14.6139 13.6274C14.4306 13.8717 14.1252 14.9915 14.1863 15.2154C14.2067 15.3172 14.0438 15.6226 13.8402 15.928C13.6162 16.2334 13.3923 16.8035 13.3109 17.2107C13.2294 17.6382 13.0055 18.1879 12.7815 18.4526C12.5372 18.7783 12.4354 19.1448 12.4965 19.4502C12.5779 19.7963 12.5575 19.8574 12.415 19.6538C12.2522 19.4502 12.1504 19.4909 11.906 19.8574C11.7228 20.1017 11.621 20.3867 11.6617 20.4478C11.7228 20.5292 11.621 20.7125 11.4581 20.855C11.2953 20.9975 11.1527 21.2418 11.1527 21.4047C11.1527 21.7305 11.0102 21.9137 9.78866 23.2574C9.30003 23.7868 8.9132 24.3161 8.9132 24.4586C8.9132 24.6011 8.83177 24.7233 8.70961 24.7233C8.60781 24.7233 8.22098 25.0287 7.85451 25.3952C6.63294 26.6167 5.30958 27.37 3.68082 27.7772C2.80537 28.0012 2.01135 28.3066 1.88919 28.4491C1.7874 28.612 1.44129 28.7952 1.11554 28.8766C0.606549 28.9988 0.565831 29.0802 0.606549 29.976C0.667628 30.8108 0.728704 30.9329 1.07481 30.8718C1.3327 30.8311 1.33949 30.9058 1.09518 31.0958C0.341882 31.6659 0.810149 31.9509 2.52034 31.9916C3.3958 32.012 4.2916 32.0323 4.4952 32.0527C4.69879 32.0731 5.4521 32.3988 6.16468 32.7856C7.30481 33.3761 7.48804 33.4168 7.48804 33.1114C7.5084 32.8874 7.6102 32.9892 7.79343 33.3761C7.93595 33.7018 8.07847 33.9054 8.07847 33.824C8.09883 33.7222 8.40422 33.8647 8.75033 34.1294C9.1168 34.394 9.74795 34.7809 10.1551 35.0048C10.5623 35.2288 11.2138 35.5749 11.5803 35.7988C12.5983 36.3485 16.1204 38.8324 16.2019 39.0156C16.2426 39.1174 16.3851 39.3007 16.5276 39.4432C18.4414 41.4588 19.9277 44.9199 20.2127 48.0349C20.2738 48.8085 20.2534 50.2744 20.1516 51.2924C20.0091 52.4529 20.0091 53.2062 20.1313 53.369C20.2534 53.4912 20.2534 53.6541 20.1516 53.7152C19.9277 53.8577 20.0295 55.3235 20.3552 56.423C20.5995 57.2984 21.0882 57.7056 21.3325 57.2781C21.4546 57.1152 21.5157 57.1355 21.5971 57.3188C21.6989 57.5631 21.8211 56.708 21.76 56.1786C21.7397 55.914 23.572 54.6517 23.9792 54.6517C24.4068 54.6313 24.9768 53.4098 24.7936 52.9008C24.6918 52.6768 24.6918 52.3714 24.7732 52.2289C24.8546 52.1068 24.875 51.5367 24.7936 50.987C24.7121 50.4373 24.7325 49.8672 24.8139 49.7247C24.9157 49.5822 24.9361 48.9307 24.8954 48.2792C24.7936 47.078 25.0379 45.5307 25.3433 45.3067C25.4247 45.2456 25.5265 44.7977 25.5672 44.3091C25.5876 43.8408 25.7912 43.1079 25.9948 42.6803C26.2187 42.2731 26.5241 41.6216 26.7074 41.2552C26.8702 40.9091 27.1145 40.6037 27.2163 40.6037C27.3385 40.6037 27.4403 40.4611 27.4403 40.2983C27.4403 40.115 27.6643 39.6264 27.9493 39.1989C28.214 38.751 28.499 38.1605 28.5804 37.8755C28.6415 37.5701 28.784 37.2851 28.8858 37.224C28.9876 37.1629 29.0691 36.9593 29.0691 36.7557C29.0691 36.5725 29.2727 36.1857 29.5373 35.921C29.7816 35.636 30.0056 35.3713 30.0056 35.3102C30.1685 34.7198 30.3721 34.2922 30.4942 34.2922C30.5757 34.2922 30.7385 34.0479 30.8607 33.7629C31.0032 33.4779 31.1864 33.2946 31.2882 33.3557C31.39 33.4168 31.5733 33.1928 31.6954 32.8671C31.7972 32.521 32.0008 32.2563 32.1026 32.2563C32.2248 32.2563 32.3266 32.1138 32.3266 31.9509C32.3266 31.788 32.4284 31.6455 32.5302 31.6455C32.6523 31.6455 32.7338 31.5233 32.7338 31.3808C32.7338 31.2587 33.202 30.6479 33.7517 30.0575C34.3218 29.467 34.7697 28.8563 34.7697 28.6934C34.7697 28.5305 34.8511 28.388 34.9529 28.388C35.2787 28.388 36.8057 26.7592 36.8057 26.4131C36.8057 25.7616 35.9098 25.1916 33.6907 24.4383C31.5733 23.7053 29.802 22.8502 29.5577 22.4634C29.4966 22.3616 29.3745 22.3209 29.2727 22.382C29.1912 22.443 29.008 22.3412 28.8655 22.1784C28.723 22.0155 28.499 21.873 28.3565 21.873C27.9697 21.873 25.3229 19.7759 24.305 18.6562C24.0606 18.4119 23.6738 18.0047 23.4295 17.7604C23.1648 17.5161 22.9612 17.2107 22.9612 17.0681C22.9612 16.946 22.8391 16.722 22.6762 16.5999C22.5133 16.4574 22.3301 16.0909 22.2487 15.7855C22.1876 15.5005 21.9025 14.9711 21.6379 14.6657C21.3528 14.34 21.1289 13.8514 21.1289 13.5867C21.1289 13.3424 21.0474 13.1184 20.966 13.1184C20.8642 13.1184 20.7828 12.9963 20.7828 12.8537C20.7624 12.7316 20.742 12.2022 20.7013 11.6932C20.681 11.1843 20.5588 10.716 20.457 10.6346C20.3145 10.5531 20.3145 10.4106 20.4774 10.207C20.681 9.98305 20.6606 9.8609 20.4367 9.67767C20.2534 9.51479 20.2127 9.25011 20.2941 8.78185C20.3756 8.43573 20.3349 7.88603 20.2331 7.56028C20.0702 7.17345 20.0905 6.88842 20.2534 6.6441C20.3959 6.39979 20.4163 6.15548 20.2738 5.93152C20.1516 5.68721 20.1516 5.3411 20.2941 4.91355C20.4163 4.54708 20.5181 4.07881 20.5181 3.85486C20.5181 3.50874 20.6606 2.00215 20.7624 1.14705C20.7828 1.02489 20.8642 0.902735 20.966 0.902735C21.2307 0.902735 21.1492 0.35304 20.8846 0.251242C20.742 0.210523 20.4367 0.210523 20.2127 0.251242ZM17.2606 15.6226C17.2606 15.8059 17.7085 16.8645 18.2378 17.9436C18.4211 18.3101 18.6654 18.534 18.8283 18.4729C19.0319 18.3915 19.0522 18.5137 18.9708 18.9616C18.8893 19.3688 18.9504 19.6742 19.1744 19.8981C19.3576 20.061 19.5001 20.3053 19.5001 20.4275C19.5001 20.5496 19.6426 20.6514 19.8055 20.6514C19.9684 20.6514 20.1109 20.7939 20.1109 20.9772C20.1109 21.4861 22.3504 23.685 23.0427 23.8682C23.5109 24.0107 23.6534 24.1532 23.6127 24.4383C23.572 24.6419 23.5924 24.764 23.6942 24.6826C23.7756 24.5808 23.9588 24.7029 24.1217 24.9269C24.2846 25.1508 24.5289 25.3341 24.6511 25.3341C24.7936 25.3341 25.0175 25.5173 25.16 25.7413C25.3026 25.9652 25.5265 26.1485 25.6894 26.1485C25.8319 26.1485 26.0762 26.291 26.2187 26.4538C26.5038 26.8 28.9266 28.0419 28.7637 27.7569C28.5804 27.4922 29.5373 26.9425 29.7817 27.1868C29.9242 27.3293 29.9038 27.4311 29.7206 27.5533C29.5373 27.6754 29.5781 27.8179 29.9038 28.2048C30.2092 28.5305 30.3721 28.6119 30.4331 28.4287C30.4942 28.3066 30.6164 28.1844 30.7385 28.1844C30.8607 28.1844 30.9014 28.3269 30.82 28.4898C30.7589 28.673 30.82 28.7952 31.0236 28.7952C31.2272 28.7952 31.0439 29.1006 30.5146 29.6503C30.0463 30.0982 29.6799 30.5665 29.6799 30.6683C29.6799 30.7701 29.4559 31.0754 29.1912 31.3401C28.3565 32.1749 27.6439 33.1928 27.6439 33.5593C27.6439 33.7425 27.5625 33.8443 27.4403 33.7832C27.3182 33.7222 27.2978 33.8036 27.3589 33.9665C27.4403 34.1497 27.3385 34.333 27.1553 34.4144C26.972 34.4755 26.8295 34.5976 26.8295 34.6994C26.8295 34.7809 26.4223 35.4731 25.9134 36.2264C25.4044 37 24.8343 38.0384 24.6511 38.5474C24.3253 39.4025 23.5109 40.3797 23.1037 40.4001C23.0223 40.4001 22.778 40.115 22.5744 39.7689C22.3301 39.3617 22.1468 39.2396 22.0858 39.4228C22.0247 39.5653 21.9636 39.4839 21.9636 39.2192C21.9433 38.4659 21.1492 37.3258 19.8055 36.0839C18.4211 34.8012 17.4642 33.9868 16.7516 33.5186C16.3037 33.2335 15.7336 32.806 15.4893 32.582C15.2246 32.3581 15.021 32.2563 15.021 32.3377C15.021 32.4192 14.7156 32.2767 14.3695 32.012C13.4126 31.3401 12.4354 30.8311 12.0486 30.8311C11.8857 30.8311 11.6006 30.6886 11.4174 30.5257C11.2545 30.3425 10.8474 30.1389 10.5216 30.0778C10.2162 30.0168 9.91082 29.8539 9.84974 29.691C9.78867 29.5281 9.60543 29.406 9.44256 29.406C9.27968 29.406 8.81141 29.2227 8.42458 28.9784C7.75272 28.5916 7.712 28.5305 8.03775 28.2251C8.22098 28.0215 8.4653 27.879 8.58746 27.879C8.70961 27.879 8.83176 27.6754 8.87248 27.4107C8.9132 27.1461 9.07608 26.9628 9.30004 26.9628C9.64615 26.9628 11.3563 25.2526 11.3563 24.8862C11.3563 24.8047 11.4785 24.7233 11.621 24.7233C11.7635 24.7233 12.0078 24.3975 12.1503 24.0107C12.2929 23.6239 12.4761 23.2981 12.5779 23.2981C12.6797 23.2981 12.7001 23.1556 12.639 22.952C12.5575 22.7484 12.5983 22.667 12.7204 22.7484C12.9037 22.8706 13.433 22.0562 13.4941 21.5676C13.4941 21.4454 13.6162 21.3843 13.7587 21.4047C13.8809 21.4454 13.942 21.3233 13.8809 21.1604C13.7995 20.9772 13.8809 20.855 14.0845 20.855C14.2677 20.855 14.4103 20.6921 14.4103 20.5089C14.4103 20.3257 14.5528 19.9999 14.736 19.8167C14.9192 19.6131 15.0821 19.2059 15.0821 18.9208C15.0821 18.6358 15.1432 18.4119 15.245 18.4119C15.3468 18.4119 15.4282 18.2897 15.4282 18.1268C15.4282 17.9843 15.5504 17.74 15.6929 17.6179C15.8558 17.4957 16.1408 16.8035 16.3648 16.0705C16.6905 14.8897 16.772 14.7675 16.9959 15.0729C17.1384 15.2765 17.2606 15.5208 17.2606 15.6226ZM20.457 20.1628C20.3959 20.2239 20.2127 20.2442 20.0702 20.1831C19.9073 20.1221 19.9684 20.061 20.1923 20.061C20.4163 20.0406 20.5385 20.1017 20.457 20.1628ZM22.1469 22.1987C22.1469 22.5652 22.0654 22.5652 21.6582 22.0969C21.4275 21.839 21.4478 21.744 21.7193 21.8119C21.9636 21.873 22.1469 22.0562 22.1469 22.1987ZM28.9062 27.2071C28.7637 27.3497 28.6619 27.37 28.6619 27.2479C28.6619 26.9628 28.9062 26.7185 29.0487 26.861C29.0894 26.9221 29.0283 27.085 28.9062 27.2071ZM30.4942 27.7772C30.4942 27.879 30.3924 27.9808 30.2703 27.9808C30.1685 27.9808 30.1278 27.879 30.1888 27.7772C30.2499 27.6551 30.3517 27.5736 30.4128 27.5736C30.4535 27.5736 30.4942 27.6551 30.4942 27.7772ZM31.7158 27.7772C31.9805 27.9401 31.9805 28.0012 31.6751 28.3269C31.4715 28.5102 31.3086 28.5712 31.3086 28.4491C31.3086 28.3269 31.1661 28.0622 30.9828 27.8994C30.6978 27.594 30.6978 27.5736 31.0439 27.5736C31.2475 27.5736 31.5529 27.6754 31.7158 27.7772ZM5.04491 31.4419C5.04491 31.5437 4.94311 31.6455 4.82096 31.6455C4.71916 31.6455 4.67844 31.5437 4.73952 31.4419C4.80059 31.3198 4.9024 31.2383 4.96348 31.2383C5.0042 31.2383 5.04491 31.3198 5.04491 31.4419ZM5.79821 31.7677C5.73713 31.8287 5.55389 31.8491 5.41138 31.788C5.2485 31.7269 5.30959 31.6659 5.53354 31.6659C5.75749 31.6455 5.87965 31.7066 5.79821 31.7677ZM7.99703 32.2563C8.07847 32.3784 7.87487 32.4599 7.54912 32.4395C7.04013 32.4395 7.01977 32.4192 7.38624 32.2563C7.6102 32.1545 7.8138 32.0731 7.83415 32.0731C7.85451 32.0527 7.93595 32.1341 7.99703 32.2563ZM11.9671 35.0048C11.8246 35.188 11.6617 35.2695 11.5803 35.2084C11.5192 35.1473 11.6007 35.0048 11.7635 34.903C12.1911 34.618 12.2522 34.6587 11.9671 35.0048ZM13.7384 35.636C14.3492 36.3078 14.2474 36.6946 13.5959 36.1653C13.3109 35.9617 12.9851 35.8192 12.8426 35.8599C12.7001 35.921 12.6593 35.7988 12.7204 35.5342C12.8629 34.9641 13.148 35.0048 13.7384 35.636Z" fill="#9F59F8"/>
</svg>
