<svg width="37" height="58" viewBox="0 0 37 58" fill="none" xmlns="http://www.w3.org/2000/svg">
<path fill-rule="evenodd" clip-rule="evenodd" d="M20.2127 0.0227267C19.1133 0.246681 17.4642 2.40477 17.4642 3.62634C17.4642 3.87065 17.3827 4.13533 17.3013 4.23712C17.0773 4.5018 16.5073 6.43594 16.3444 7.49464C16.263 7.94254 15.9779 9.04195 15.6929 9.93777C15.4079 10.8336 15.1636 11.648 15.1228 11.7701C14.9396 12.5845 14.736 13.236 14.6139 13.3989C14.4306 13.6432 14.1252 14.763 14.1863 14.9869C14.2067 15.0887 14.0438 15.3941 13.8402 15.6995C13.6162 16.0049 13.3923 16.575 13.3109 16.9821C13.2294 17.4097 13.0055 17.9594 12.7815 18.2241C12.5372 18.5498 12.4354 18.9163 12.4965 19.2217C12.5779 19.5678 12.5575 19.6289 12.415 19.4253C12.2522 19.2217 12.1504 19.2624 11.906 19.6289C11.7228 19.8732 11.621 20.1582 11.6617 20.2193C11.7228 20.3007 11.621 20.484 11.4581 20.6265C11.2953 20.769 11.1527 21.0133 11.1527 21.1762C11.1527 21.5019 11.0102 21.6852 9.78866 23.0289C9.30003 23.5583 8.9132 24.0876 8.9132 24.2301C8.9132 24.3726 8.83177 24.4948 8.70961 24.4948C8.60781 24.4948 8.22098 24.8002 7.85451 25.1666C6.63294 26.3882 5.30958 27.1415 3.68082 27.5487C2.80536 27.7726 2.01135 28.078 1.88919 28.2206C1.7874 28.3834 1.44129 28.5667 1.11554 28.6481C0.606549 28.7703 0.565831 28.8517 0.606549 29.7475C0.667628 30.5823 0.728704 30.7044 1.07481 30.6433C1.3327 30.6026 1.33949 30.6773 1.09518 30.8673C0.341882 31.4374 0.810149 31.7224 2.52034 31.7631C3.3958 31.7835 4.29161 31.8038 4.4952 31.8242C4.69879 31.8445 5.4521 32.1703 6.16468 32.5571C7.30481 33.1475 7.48804 33.1883 7.48804 32.8829C7.5084 32.6589 7.6102 32.7607 7.79343 33.1475C7.93595 33.4733 8.07847 33.6769 8.07847 33.5955C8.09883 33.4937 8.40422 33.6362 8.75033 33.9008C9.1168 34.1655 9.74795 34.5523 10.1551 34.7763C10.5623 35.0003 11.2138 35.3464 11.5803 35.5703C12.5983 36.12 16.1204 38.6039 16.2019 38.7871C16.2426 38.8889 16.3851 39.0722 16.5276 39.2147C18.4414 41.2303 19.9277 44.6914 20.2127 47.8063C20.2738 48.58 20.2534 50.0459 20.1516 51.0639C20.0091 52.2243 20.0091 52.9776 20.1313 53.1405C20.2534 53.2627 20.2534 53.4256 20.1516 53.4866C19.9277 53.6292 20.0295 55.095 20.3552 56.1944C20.5995 57.0699 21.0882 57.4771 21.3325 57.0495C21.4546 56.8867 21.5157 56.907 21.5971 57.0903C21.6989 57.3346 21.8211 56.4795 21.76 55.9501C21.7397 55.6855 23.572 54.4232 23.9792 54.4232C24.4068 54.4028 24.9768 53.1812 24.7936 52.6723C24.6918 52.4483 24.6918 52.1429 24.7732 52.0004C24.8546 51.8782 24.875 51.3082 24.7936 50.7585C24.7121 50.2088 24.7325 49.6387 24.8139 49.4962C24.9157 49.3537 24.9361 48.7022 24.8954 48.0507C24.7936 46.8495 25.0379 45.3021 25.3433 45.0782C25.4247 45.0171 25.5265 44.5692 25.5672 44.0806C25.5876 43.6123 25.7912 42.8794 25.9948 42.4518C26.2187 42.0446 26.5241 41.3931 26.7074 41.0267C26.8702 40.6805 27.1145 40.3751 27.2163 40.3751C27.3385 40.3751 27.4403 40.2326 27.4403 40.0698C27.4403 39.8865 27.6643 39.3979 27.9493 38.9704C28.214 38.5224 28.499 37.932 28.5804 37.647C28.6415 37.3416 28.784 37.0566 28.8858 36.9955C28.9876 36.9344 29.0691 36.7308 29.0691 36.5272C29.0691 36.344 29.2727 35.9571 29.5373 35.6925C29.7816 35.4074 30.0056 35.1428 30.0056 35.0817C30.1685 34.4913 30.3721 34.0637 30.4942 34.0637C30.5757 34.0637 30.7385 33.8194 30.8607 33.5344C31.0032 33.2493 31.1864 33.0661 31.2882 33.1272C31.39 33.1883 31.5733 32.9643 31.6954 32.6386C31.7972 32.2924 32.0008 32.0278 32.1026 32.0278C32.2248 32.0278 32.3266 31.8853 32.3266 31.7224C32.3266 31.5595 32.4284 31.417 32.5302 31.417C32.6523 31.417 32.7338 31.2948 32.7338 31.1523C32.7338 31.0302 33.202 30.4194 33.7517 29.829C34.3218 29.2385 34.7697 28.6277 34.7697 28.4649C34.7697 28.302 34.8511 28.1595 34.9529 28.1595C35.2787 28.1595 36.8057 26.5307 36.8057 26.1846C36.8057 25.5331 35.9098 24.9631 33.6907 24.2098C31.5733 23.4768 29.802 22.6217 29.5577 22.2349C29.4966 22.1331 29.3745 22.0924 29.2727 22.1534C29.1912 22.2145 29.008 22.1127 28.8655 21.9498C28.723 21.787 28.499 21.6445 28.3565 21.6445C27.9697 21.6445 25.3229 19.5474 24.305 18.4277C24.0606 18.1833 23.6738 17.7762 23.4295 17.5319C23.1648 17.2875 22.9612 16.9821 22.9612 16.8396C22.9612 16.7175 22.8391 16.4935 22.6762 16.3714C22.5133 16.2288 22.3301 15.8624 22.2487 15.557C22.1876 15.272 21.9025 14.7426 21.6379 14.4372C21.3528 14.1115 21.1289 13.6228 21.1289 13.3582C21.1289 13.1139 21.0474 12.8899 20.966 12.8899C20.8642 12.8899 20.7828 12.7677 20.7828 12.6252C20.7624 12.5031 20.742 11.9737 20.7013 11.4647C20.681 10.9557 20.5588 10.4875 20.457 10.406C20.3145 10.3246 20.3145 10.1821 20.4774 9.97849C20.681 9.75454 20.6606 9.63239 20.4367 9.44915C20.2534 9.28627 20.2127 9.0216 20.2941 8.55333C20.3756 8.20722 20.3349 7.65751 20.2331 7.33176C20.0702 6.94493 20.0905 6.6599 20.2534 6.41559C20.3959 6.17127 20.4163 5.92696 20.2738 5.70301C20.1516 5.45869 20.1516 5.11258 20.2941 4.68503C20.4163 4.31856 20.5181 3.85029 20.5181 3.62634C20.5181 3.28023 20.6606 1.77363 20.7624 0.918535C20.7828 0.796378 20.8642 0.674219 20.966 0.674219C21.2307 0.674219 21.1492 0.124524 20.8846 0.0227267C20.742 -0.0179922 20.4367 -0.0179922 20.2127 0.0227267ZM17.2606 15.3941C17.2606 15.5773 17.7085 16.636 18.2378 17.7151C18.4211 18.0816 18.6654 18.3055 18.8283 18.2444C19.0319 18.163 19.0522 18.2851 18.9708 18.7331C18.8893 19.1402 18.9504 19.4456 19.1744 19.6696C19.3576 19.8325 19.5001 20.0768 19.5001 20.1989C19.5001 20.3211 19.6426 20.4229 19.8055 20.4229C19.9684 20.4229 20.1109 20.5654 20.1109 20.7486C20.1109 21.2576 22.3504 23.4565 23.0427 23.6397C23.5109 23.7822 23.6534 23.9247 23.6127 24.2098C23.572 24.4133 23.5924 24.5355 23.6942 24.4541C23.7756 24.3523 23.9588 24.4744 24.1217 24.6984C24.2846 24.9223 24.5289 25.1056 24.6511 25.1056C24.7936 25.1056 25.0175 25.2888 25.16 25.5127C25.3026 25.7367 25.5265 25.9199 25.6894 25.9199C25.8319 25.9199 26.0762 26.0625 26.2187 26.2253C26.5038 26.5714 28.9266 27.8134 28.7637 27.5283C28.5804 27.2637 29.5373 26.714 29.7817 26.9583C29.9242 27.1008 29.9038 27.2026 29.7206 27.3247C29.5373 27.4469 29.5781 27.5894 29.9038 27.9762C30.2092 28.302 30.3721 28.3834 30.4331 28.2002C30.4942 28.078 30.6164 27.9559 30.7385 27.9559C30.8607 27.9559 30.9014 28.0984 30.82 28.2613C30.7589 28.4445 30.82 28.5667 31.0236 28.5667C31.2272 28.5667 31.0439 28.8721 30.5146 29.4218C30.0463 29.8697 29.6799 30.3379 29.6799 30.4397C29.6799 30.5415 29.4559 30.8469 29.1912 31.1116C28.3565 31.9463 27.6439 32.9643 27.6439 33.3308C27.6439 33.514 27.5625 33.6158 27.4403 33.5547C27.3182 33.4937 27.2978 33.5751 27.3589 33.738C27.4403 33.9212 27.3385 34.1044 27.1553 34.1859C26.972 34.247 26.8295 34.3691 26.8295 34.4709C26.8295 34.5523 26.4223 35.2446 25.9134 35.9979C25.4044 36.7715 24.8343 37.8099 24.6511 38.3188C24.3253 39.1739 23.5109 40.1512 23.1037 40.1716C23.0223 40.1716 22.778 39.8865 22.5744 39.5404C22.3301 39.1332 22.1468 39.0111 22.0858 39.1943C22.0247 39.3368 21.9636 39.2554 21.9636 38.9907C21.9433 38.2374 21.1492 37.0973 19.8055 35.8554C18.4211 34.5727 17.4642 33.7583 16.7516 33.2901C16.3037 33.005 15.7336 32.5775 15.4893 32.3535C15.2246 32.1296 15.021 32.0278 15.021 32.1092C15.021 32.1907 14.7156 32.0481 14.3695 31.7835C13.4126 31.1116 12.4354 30.6026 12.0486 30.6026C11.8857 30.6026 11.6006 30.4601 11.4174 30.2972C11.2545 30.114 10.8474 29.9104 10.5216 29.8493C10.2162 29.7882 9.91082 29.6254 9.84975 29.4625C9.78867 29.2996 9.60543 29.1774 9.44256 29.1774C9.27968 29.1774 8.81141 28.9942 8.42458 28.7499C7.75272 28.3631 7.712 28.302 8.03775 27.9966C8.22098 27.793 8.4653 27.6505 8.58746 27.6505C8.70961 27.6505 8.83176 27.4469 8.87248 27.1822C8.9132 26.9176 9.07608 26.7343 9.30004 26.7343C9.64615 26.7343 11.3563 25.0241 11.3563 24.6577C11.3563 24.5762 11.4785 24.4948 11.621 24.4948C11.7635 24.4948 12.0078 24.169 12.1503 23.7822C12.2929 23.3954 12.4761 23.0696 12.5779 23.0696C12.6797 23.0696 12.7001 22.9271 12.639 22.7235C12.5575 22.5199 12.5983 22.4385 12.7204 22.5199C12.9037 22.6421 13.433 21.8277 13.4941 21.3391C13.4941 21.2169 13.6162 21.1558 13.7587 21.1762C13.8809 21.2169 13.942 21.0947 13.8809 20.9319C13.7995 20.7486 13.8809 20.6265 14.0845 20.6265C14.2677 20.6265 14.4103 20.4636 14.4103 20.2804C14.4103 20.0971 14.5528 19.7714 14.736 19.5882C14.9192 19.3846 15.0821 18.9774 15.0821 18.6923C15.0821 18.4073 15.1432 18.1833 15.245 18.1833C15.3468 18.1833 15.4282 18.0612 15.4282 17.8983C15.4282 17.7558 15.5504 17.5115 15.6929 17.3893C15.8558 17.2672 16.1408 16.575 16.3648 15.842C16.6905 14.6612 16.772 14.539 16.9959 14.8444C17.1384 15.048 17.2606 15.2923 17.2606 15.3941ZM20.457 19.9343C20.3959 19.9953 20.2127 20.0157 20.0702 19.9546C19.9073 19.8935 19.9684 19.8325 20.1923 19.8325C20.4163 19.8121 20.5385 19.8732 20.457 19.9343ZM22.1469 21.9702C22.1469 22.3367 22.0654 22.3367 21.6582 21.8684C21.4275 21.6105 21.4478 21.5155 21.7193 21.5834C21.9636 21.6445 22.1469 21.8277 22.1469 21.9702ZM28.9062 26.9786C28.7637 27.1211 28.6619 27.1415 28.6619 27.0194C28.6619 26.7343 28.9062 26.49 29.0487 26.6325C29.0894 26.6936 29.0283 26.8565 28.9062 26.9786ZM30.4942 27.5487C30.4942 27.6505 30.3924 27.7523 30.2703 27.7523C30.1685 27.7523 30.1278 27.6505 30.1888 27.5487C30.2499 27.4265 30.3517 27.3451 30.4128 27.3451C30.4535 27.3451 30.4942 27.4265 30.4942 27.5487ZM31.7158 27.5487C31.9805 27.7116 31.9805 27.7726 31.6751 28.0984C31.4715 28.2816 31.3086 28.3427 31.3086 28.2206C31.3086 28.0984 31.1661 27.8337 30.9828 27.6709C30.6978 27.3655 30.6978 27.3451 31.0439 27.3451C31.2475 27.3451 31.5529 27.4469 31.7158 27.5487ZM5.04491 31.2134C5.04491 31.3152 4.94311 31.417 4.82096 31.417C4.71916 31.417 4.67844 31.3152 4.73952 31.2134C4.80059 31.0912 4.9024 31.0098 4.96348 31.0098C5.0042 31.0098 5.04491 31.0912 5.04491 31.2134ZM5.79821 31.5392C5.73713 31.6002 5.55389 31.6206 5.41137 31.5595C5.2485 31.4984 5.30959 31.4374 5.53354 31.4374C5.75749 31.417 5.87965 31.4781 5.79821 31.5392ZM7.99703 32.0278C8.07847 32.1499 7.87487 32.2314 7.54912 32.211C7.04013 32.211 7.01977 32.1906 7.38624 32.0278C7.6102 31.926 7.8138 31.8445 7.83415 31.8445C7.85451 31.8242 7.93595 31.9056 7.99703 32.0278ZM11.9671 34.7763C11.8246 34.9595 11.6617 35.041 11.5803 34.9799C11.5192 34.9188 11.6007 34.7763 11.7635 34.6745C12.1911 34.3895 12.2522 34.4302 11.9671 34.7763ZM13.7384 35.4074C14.3492 36.0793 14.2474 36.4661 13.5959 35.9368C13.3109 35.7332 12.9851 35.5907 12.8426 35.6314C12.7001 35.6925 12.6593 35.5703 12.7204 35.3057C12.8629 34.7356 13.148 34.7763 13.7384 35.4074Z" fill="#F79DFF"/>
</svg>
