<svg width="307" height="87" viewBox="0 0 307 87" fill="none" xmlns="http://www.w3.org/2000/svg">
<path d="M3.29717 86.1373H0.858398V69.0998H3.29717L13.5519 82.3116V57.3225L15.9907 57.3316L292.378 57.3225V59.7952H15.9907V86.1373H13.5519L3.29717 72.9255V86.1373Z" fill="white"/>
<path d="M50.022 69.0998H62.4538V71.5354H52.4608V76.4067H60.9905V78.8423H52.4608V83.7016H62.4538V86.1373H50.022V69.0998Z" fill="white"/>
<path d="M94.2961 69.0998H107.941V71.5354H102.338V86.1373H99.8994V71.5354H94.2961V69.0998Z" fill="white"/>
<path d="M143.936 86.1373L139.058 69.0998H141.497L145.28 82.6561L149.051 69.0998H151.49L155.261 82.6561L159.044 69.0998H161.483L156.605 86.1373H153.929L150.276 73.3651L146.612 86.1373H143.936Z" fill="white"/>
<path d="M208.684 83.7016C208.684 84.0343 208.62 84.3511 208.493 84.6521C208.366 84.9452 208.192 85.2026 207.97 85.4244C207.748 85.6462 207.486 85.8204 207.185 85.9472C206.891 86.0739 206.578 86.1373 206.245 86.1373H196.502C196.168 86.1373 195.851 86.0739 195.55 85.9472C195.256 85.8204 194.999 85.6462 194.777 85.4244C194.554 85.2026 194.38 84.9452 194.253 84.6521C194.126 84.3511 194.063 84.0343 194.063 83.7016V71.5354C194.063 71.2027 194.126 70.8899 194.253 70.5968C194.38 70.2958 194.554 70.0384 194.777 69.8245C194.999 69.6028 195.256 69.4285 195.55 69.3018C195.851 69.1671 196.168 69.0998 196.502 69.0998H206.245C206.578 69.0998 206.891 69.1671 207.185 69.3018C207.486 69.4285 207.748 69.6028 207.97 69.8245C208.192 70.0384 208.366 70.2958 208.493 70.5968C208.62 70.8899 208.684 71.2027 208.684 71.5354V83.7016ZM196.502 71.5354V83.7016H206.245V71.5354H196.502Z" fill="white"/>
<path d="M256.205 75.1829C256.205 77.5591 255.19 78.9136 253.16 79.2462L256.372 86.1373H253.671L250.507 79.3294H245.165V86.1373H242.727V69.0998H252.065C254.825 69.0998 256.205 70.4819 256.205 73.2463V75.1829ZM245.165 76.8938H251.935C252.585 76.8938 253.053 76.7512 253.338 76.4661C253.624 76.1809 253.767 75.7136 253.767 75.0641V73.3651C253.767 72.7156 253.624 72.2483 253.338 71.9631C253.053 71.678 252.585 71.5354 251.935 71.5354H245.165V76.8938Z" fill="white"/>
<path d="M292.378 57.3225V76.4542L300.515 69.0998H303.953L294.722 77.4522L304.322 86.1373H300.884L292.378 78.474V86.1373H289.939V60.9925V57.3314L292.378 57.3225Z" fill="white"/>
<path d="M11.9414 19.351H33.5483V27.4192H11.9414V19.351ZM12.7108 37.7925H37.1388V46.1168H2.38816V1.29378H36.3053V9.61805H12.7108V37.7925Z" fill="white"/>
<path d="M39.5045 46.1168L59.5086 1.29378H69.7671L89.8352 46.1168H78.9356L62.522 6.54447H66.6254L50.1477 46.1168H39.5045ZM49.5066 36.5118L52.2635 28.6358H75.3451L78.1662 36.5118H49.5066Z" fill="white"/>
<path d="M109.238 46.8852C105.648 46.8852 102.207 46.4156 98.9156 45.4764C95.6243 44.4946 92.9742 43.2353 90.9653 41.6985L94.4916 33.8865C96.4151 35.2525 98.6805 36.3838 101.288 37.2802C103.938 38.134 106.609 38.5609 109.302 38.5609C111.354 38.5609 113 38.3688 114.239 37.9846C115.522 37.5577 116.462 36.9814 117.06 36.2557C117.659 35.53 117.958 34.6976 117.958 33.7584C117.958 32.5631 117.488 31.624 116.547 30.941C115.607 30.2153 114.367 29.639 112.829 29.2121C111.29 28.7425 109.58 28.3156 107.699 27.9314C105.861 27.5046 104.002 26.9923 102.121 26.3946C100.283 25.797 98.595 25.0286 97.0562 24.0895C95.5174 23.1503 94.2565 21.9123 93.2734 20.3756C92.3331 18.8388 91.8629 16.8751 91.8629 14.4845C91.8629 11.9232 92.5468 9.59671 93.9146 7.50497C95.3251 5.37054 97.4195 3.68434 100.198 2.44637C103.019 1.16572 106.545 0.525391 110.777 0.525391C113.598 0.525391 116.376 0.866898 119.112 1.54991C121.848 2.19024 124.263 3.17208 126.357 4.49542L123.151 12.3715C121.057 11.1762 118.962 10.3011 116.868 9.74612C114.773 9.14848 112.722 8.84966 110.713 8.84966C108.704 8.84966 107.058 9.08444 105.776 9.55402C104.494 10.0236 103.575 10.6426 103.019 11.411C102.463 12.1367 102.185 12.9904 102.185 13.9723C102.185 15.1249 102.656 16.064 103.596 16.7897C104.536 17.4727 105.776 18.0277 107.315 18.4546C108.853 18.8815 110.542 19.3083 112.38 19.7352C114.261 20.1621 116.12 20.653 117.958 21.208C119.839 21.7629 121.548 22.51 123.087 23.4491C124.626 24.3883 125.865 25.6263 126.806 27.163C127.789 28.6998 128.28 30.6422 128.28 32.99C128.28 35.5087 127.575 37.8138 126.165 39.9056C124.754 41.9973 122.638 43.6835 119.817 44.9642C117.039 46.2448 113.513 46.8852 109.238 46.8852Z" fill="white"/>
<path d="M145.595 46.1168V27.8034L147.967 34.0786L128.219 1.29378H139.247L154.379 26.4587H148.031L163.226 1.29378H173.421L153.673 34.0786L155.981 27.8034V46.1168H145.595Z" fill="white"/>
<path d="M177.391 46.1168V1.29378H196.818C200.836 1.29378 204.298 1.95546 207.205 3.2788C210.111 4.55946 212.355 6.41641 213.937 8.84966C215.518 11.2829 216.309 14.1857 216.309 17.5581C216.309 20.8878 215.518 23.7693 213.937 26.2025C212.355 28.6358 210.111 30.5141 207.205 31.8374C204.298 33.1181 200.836 33.7584 196.818 33.7584H183.161L187.778 29.084V46.1168H177.391ZM187.778 30.2366L183.161 25.3061H196.241C199.447 25.3061 201.84 24.6231 203.422 23.257C205.003 21.891 205.794 19.9914 205.794 17.5581C205.794 15.0822 205.003 13.1612 203.422 11.7952C201.84 10.4291 199.447 9.74612 196.241 9.74612H183.161L187.778 4.81559V30.2366Z" fill="white"/>
<path d="M215.572 46.1168L235.576 1.29378H245.834L265.902 46.1168H255.003L238.589 6.54447H242.693L226.215 46.1168H215.572ZM225.574 36.5118L228.331 28.6358H251.412L254.233 36.5118H225.574Z" fill="white"/>
<path d="M278.96 46.1168V27.8034L281.332 34.0786L261.585 1.29378H272.613L287.744 26.4587H281.396L296.592 1.29378H306.786L287.039 34.0786L289.347 27.8034V46.1168H278.96Z" fill="white"/>
</svg>
