<svg width="230" height="230" viewBox="0 0 230 230" fill="none" xmlns="http://www.w3.org/2000/svg">
<path d="M0.572266 10.5195C0.572266 5.27283 4.82556 1.01953 10.0723 1.01953H114.572H219.072C224.319 1.01953 228.572 5.27283 228.572 10.5195V35.5047V115.02V219.52C228.572 224.766 224.319 229.02 219.072 229.02H10.0723C4.82557 229.02 0.572266 224.766 0.572266 219.52V10.5195Z" fill="url(#paint0_linear_2572_3121)" fill-opacity="0.06"/>
<path d="M0.572266 10.5195C0.572266 5.27283 4.82556 1.01953 10.0723 1.01953H114.572H219.072C224.319 1.01953 228.572 5.27283 228.572 10.5195V35.5047V115.02V219.52C228.572 224.766 224.319 229.02 219.072 229.02H10.0723C4.82557 229.02 0.572266 224.766 0.572266 219.52V10.5195Z" stroke="white"/>
<path d="M0.572266 10.5195C0.572266 5.27283 4.82556 1.01953 10.0723 1.01953H114.572H219.072C224.319 1.01953 228.572 5.27283 228.572 10.5195V35.5047V115.02V219.52C228.572 224.766 224.319 229.02 219.072 229.02H10.0723C4.82557 229.02 0.572266 224.766 0.572266 219.52V10.5195Z" stroke="url(#paint1_linear_2572_3121)"/>
<defs>
<linearGradient id="paint0_linear_2572_3121" x1="114.572" y1="0.519531" x2="114.572" y2="229.52" gradientUnits="userSpaceOnUse">
<stop stop-color="#6F4ED0"/>
<stop offset="1" stop-color="#4D3593" stop-opacity="0"/>
</linearGradient>
<linearGradient id="paint1_linear_2572_3121" x1="53.6749" y1="401.399" x2="286.984" y2="392.456" gradientUnits="userSpaceOnUse">
<stop stop-color="#9945FF"/>
<stop offset="0.496142" stop-color="#FD76FF"/>
<stop offset="1" stop-color="#FCFF76"/>
</linearGradient>
</defs>
</svg>
