<svg width="214" height="43" viewBox="0 0 214 43" fill="none" xmlns="http://www.w3.org/2000/svg">
<path d="M212.973 26.1788V7.625C212.973 4.31129 210.286 1.625 206.973 1.625H20.4109C19.1324 1.625 17.8873 2.0334 16.8571 2.79066L3.88473 12.3267C2.34674 13.4573 1.43848 15.2523 1.43848 17.1611V35.625C1.43848 38.9387 4.12477 41.625 7.43848 41.625H194.246C195.534 41.625 196.788 41.2105 197.822 40.4429L210.549 30.9967C212.074 29.8648 212.973 28.0779 212.973 26.1788Z" fill="#181818"/>
<path d="M212.973 26.1788V7.625C212.973 4.31129 210.286 1.625 206.973 1.625H20.4109C19.1324 1.625 17.8873 2.0334 16.8571 2.79066L3.88473 12.3267C2.34674 13.4573 1.43848 15.2523 1.43848 17.1611V35.625C1.43848 38.9387 4.12477 41.625 7.43848 41.625H194.246C195.534 41.625 196.788 41.2105 197.822 40.4429L210.549 30.9967C212.074 29.8648 212.973 28.0779 212.973 26.1788Z" fill="url(#paint0_linear_1154_573)"/>
<path d="M213.473 26.1788V7.625C213.473 4.03515 210.562 1.125 206.973 1.125H20.4109C19.0258 1.125 17.677 1.56743 16.561 2.38779L3.58858 11.9239C1.92243 13.1487 0.938477 15.0932 0.938477 17.1611V35.625C0.938477 39.2149 3.84863 42.125 7.43848 42.125H194.246C195.641 42.125 196.999 41.676 198.12 40.8444L210.847 31.3982C212.499 30.172 213.473 28.2361 213.473 26.1788Z" stroke="#5FED76" stroke-opacity="0.32"/>
<defs>
<linearGradient id="paint0_linear_1154_573" x1="56.1062" y1="74.0891" x2="-17.167" y2="-113.928" gradientUnits="userSpaceOnUse">
<stop stop-color="#131415"/>
<stop offset="1" stop-color="#B5B5B5"/>
</linearGradient>
</defs>
</svg>
