<svg width="19" height="21" viewBox="0 0 19 21" fill="none" xmlns="http://www.w3.org/2000/svg">
<path d="M4.31523 4.98611C4.06523 4.34811 4.07523 3.61911 4.18623 2.95211C4.95042 3.18108 5.66812 3.54332 6.30623 4.02211C6.58623 4.23611 6.95323 4.30511 7.29523 4.20211C8.1728 3.93955 9.08422 3.80747 10.0002 3.81011C10.9612 3.81011 11.8742 3.95011 12.7032 4.20111C13.0452 4.30511 13.4122 4.23511 13.6912 4.02111C14.329 3.54243 15.0464 3.18019 15.8102 2.95111C15.9212 3.61811 15.9302 4.34711 15.6822 4.98411C15.5322 5.36811 15.6072 5.81011 15.8902 6.12411C16.6142 6.92711 17.0002 7.85011 17.0002 8.81011C17.0002 10.9241 15.0302 12.9971 11.8662 13.6281C11.0742 13.7861 10.7652 14.7831 11.3712 15.3541C11.7602 15.7201 12.0002 16.2361 12.0002 16.8101V19.8101C12.0002 20.0753 12.1056 20.3297 12.2931 20.5172C12.4807 20.7048 12.735 20.8101 13.0002 20.8101C13.2654 20.8101 13.5198 20.7048 13.7073 20.5172C13.8949 20.3297 14.0002 20.0753 14.0002 19.8101V16.8101C14.0002 16.2401 13.8802 15.6981 13.6662 15.2071C16.6832 14.1601 19.0002 11.8031 19.0002 8.81011C19.0002 7.46311 18.5162 6.22511 17.7132 5.18811C17.9232 4.36811 17.9042 3.54211 17.8242 2.90811C17.7532 2.34011 17.6542 1.59611 17.2542 1.15211C16.6592 0.49311 15.6742 0.88111 14.9742 1.12011C14.2233 1.3742 13.5089 1.72552 12.8492 2.16511C11.9183 1.92752 10.961 1.80825 10.0002 1.81011C9.00623 1.81011 8.04723 1.93511 7.14923 2.16611C6.48955 1.72651 5.77514 1.37519 5.02423 1.12111C4.32423 0.88111 3.33823 0.49311 2.74323 1.15211C2.33523 1.60411 2.25023 2.28911 2.17723 2.87111L2.17223 2.90911C2.09223 3.54411 2.07423 4.37111 2.28423 5.19211C1.48423 6.22811 1.00023 7.46411 1.00023 8.81011C1.00023 11.8021 3.31723 14.1601 6.33423 15.2071C6.11585 15.7064 6.00218 16.2452 6.00023 16.7901L5.83223 16.8241C5.11523 16.9231 4.65623 16.8341 4.34423 16.7021C3.58423 16.3801 3.19223 15.5691 2.71423 14.9491C2.41623 14.5641 1.98223 14.0831 1.31623 13.8611C1.1916 13.8196 1.06003 13.8031 0.929009 13.8124C0.79799 13.8218 0.670097 13.8568 0.552631 13.9156C0.315397 14.0343 0.135038 14.2424 0.0512294 14.4941C-0.032579 14.7458 -0.0129713 15.0205 0.105739 15.2577C0.22445 15.4949 0.432539 15.6753 0.684229 15.7591C1.24223 15.9451 1.62823 16.9011 1.98223 17.3251C2.35523 17.7731 2.85123 18.2411 3.56223 18.5431C4.24423 18.8331 5.04523 18.9361 6.00023 18.8191V19.8101C6.00023 20.0753 6.10559 20.3297 6.29312 20.5172C6.48066 20.7048 6.73501 20.8101 7.00023 20.8101C7.26545 20.8101 7.5198 20.7048 7.70734 20.5172C7.89487 20.3297 8.00023 20.0753 8.00023 19.8101V16.8101C8.00023 16.2361 8.24023 15.7201 8.62923 15.3541C9.23623 14.7821 8.92623 13.7861 8.13423 13.6281C4.96923 12.9971 3.00023 10.9241 3.00023 8.81011C3.00023 7.85211 3.38523 6.92911 4.10823 6.12611C4.39123 5.81211 4.46523 5.37011 4.31523 4.98611Z" fill="white"/>
</svg>
