<svg width="365" height="103" viewBox="0 0 365 103" fill="none" xmlns="http://www.w3.org/2000/svg">
<path d="M3.15474 102.305H0.253906V82.0395H3.15474L15.3524 97.7544V68.0308L18.2532 68.0416L347.006 68.0308V70.9719H18.2532V102.305H15.3524L3.15474 86.59V102.305Z" fill="white"/>
<path d="M58.7322 82.0395H73.5194V84.9365H61.6331V90.7307H71.7789V93.6278H61.6331V99.4078H73.5194V102.305H58.7322V82.0395Z" fill="white"/>
<path d="M111.395 82.0395H127.625V84.9365H120.96V102.305H118.06V84.9365H111.395V82.0395Z" fill="white"/>
<path d="M170.439 102.305L164.637 82.0395H167.538L172.038 98.1642L176.524 82.0395H179.425L183.91 98.1642L188.41 82.0395H191.311L185.509 102.305H182.325L177.981 87.1129L173.623 102.305H170.439Z" fill="white"/>
<path d="M247.454 99.4078C247.454 99.8035 247.379 100.18 247.228 100.538C247.077 100.887 246.87 101.193 246.605 101.457C246.341 101.721 246.03 101.928 245.671 102.079C245.322 102.23 244.95 102.305 244.554 102.305H232.964C232.568 102.305 232.191 102.23 231.832 102.079C231.483 101.928 231.177 101.721 230.913 101.457C230.648 101.193 230.441 100.887 230.29 100.538C230.139 100.18 230.064 99.8035 230.064 99.4078V84.9365C230.064 84.5408 230.139 84.1687 230.29 83.8201C230.441 83.4621 230.648 83.1559 230.913 82.9015C231.177 82.6377 231.483 82.4304 231.832 82.2797C232.191 82.1195 232.568 82.0395 232.964 82.0395H244.554C244.95 82.0395 245.322 82.1195 245.671 82.2797C246.03 82.4304 246.341 82.6377 246.605 82.9015C246.87 83.1559 247.077 83.4621 247.228 83.8201C247.379 84.1687 247.454 84.5408 247.454 84.9365V99.4078ZM232.964 84.9365V99.4078H244.554V84.9365H232.964Z" fill="white"/>
<path d="M303.98 89.2751C303.98 92.1015 302.773 93.7126 300.358 94.1083L304.178 102.305H300.966L297.202 94.2072H290.848V102.305H287.948V82.0395H299.056C302.339 82.0395 303.98 83.6835 303.98 86.9716V89.2751ZM290.848 91.3101H298.9C299.674 91.3101 300.23 91.1405 300.57 90.8014C300.909 90.4622 301.079 89.9063 301.079 89.1338V87.1129C301.079 86.3403 300.909 85.7845 300.57 85.4453C300.23 85.1061 299.674 84.9365 298.9 84.9365H290.848V91.3101Z" fill="white"/>
<path d="M347.006 68.0308V90.7872L356.685 82.0395H360.774L349.794 91.9743L361.213 102.305H357.124L347.006 93.1897V102.305H344.105V72.3961V68.0414L347.006 68.0308Z" fill="white"/>
<path d="M13.4367 22.8651H39.1374V32.4618H13.4367V22.8651ZM14.3519 44.8005H43.4081V54.702H2.0735V1.38663H42.4167V11.288H14.3519V44.8005Z" fill="white"/>
<path d="M46.2221 54.702L70.0162 1.38663H82.2183L106.089 54.702H93.1239L73.6006 7.63214H78.4814L58.8818 54.702H46.2221ZM58.1192 43.2772L61.3985 33.909H88.8532L92.2088 43.2772H58.1192Z" fill="white"/>
<path d="M129.168 55.6159C124.897 55.6159 120.804 55.0574 116.889 53.9403C112.975 52.7725 109.822 51.2745 107.433 49.4466L111.627 40.1545C113.915 41.7793 116.61 43.1249 119.711 44.1912C122.863 45.2068 126.041 45.7145 129.244 45.7145C131.684 45.7145 133.642 45.486 135.116 45.029C136.642 44.5213 137.76 43.8358 138.472 42.9726C139.184 42.1094 139.54 41.1192 139.54 40.0022C139.54 38.5804 138.98 37.4633 137.862 36.6509C136.743 35.7877 135.269 35.1022 133.439 34.5945C131.608 34.0359 129.575 33.5282 127.337 33.0712C125.151 32.5634 122.94 31.9541 120.703 31.2432C118.516 30.5323 116.508 29.6184 114.678 28.5013C112.847 27.3842 111.348 25.9117 110.178 24.0837C109.06 22.2558 108.5 19.9201 108.5 17.0766C108.5 14.03 109.314 11.2627 110.941 8.77461C112.619 6.23579 115.11 4.23011 118.415 2.7576C121.77 1.2343 125.965 0.472656 130.998 0.472656C134.354 0.472656 137.658 0.878868 140.912 1.69129C144.166 2.45294 147.039 3.6208 149.53 5.19487L145.717 14.5631C143.226 13.1414 140.734 12.1005 138.243 11.4404C135.752 10.7295 133.311 10.3741 130.922 10.3741C128.532 10.3741 126.575 10.6533 125.05 11.2119C123.524 11.7704 122.431 12.5067 121.77 13.4207C121.109 14.2839 120.779 15.2994 120.779 16.4673C120.779 17.8382 121.338 18.9553 122.457 19.8185C123.575 20.6309 125.05 21.291 126.88 21.7988C128.71 22.3066 130.718 22.8143 132.905 23.3221C135.142 23.8298 137.353 24.4138 139.54 25.0739C141.777 25.734 143.81 26.6226 145.641 27.7396C147.471 28.8567 148.945 30.3292 150.064 32.1572C151.233 33.9851 151.818 36.2955 151.818 39.0882C151.818 42.084 150.979 44.8259 149.301 47.314C147.623 49.802 145.107 51.8077 141.751 53.331C138.446 54.8543 134.252 55.6159 129.168 55.6159Z" fill="white"/>
<path d="M172.413 54.702V32.9188L175.234 40.383L151.745 1.38663H164.863L182.861 31.3194H175.311L193.385 1.38663H205.511L182.022 40.383L184.767 32.9188V54.702H172.413Z" fill="white"/>
<path d="M210.233 54.702V1.38663H233.341C238.12 1.38663 242.238 2.17367 245.695 3.74774C249.153 5.27103 251.822 7.47981 253.703 10.3741C255.584 13.2683 256.525 16.7211 256.525 20.7325C256.525 24.693 255.584 28.1205 253.703 31.0147C251.822 33.909 249.153 36.1431 245.695 37.7172C242.238 39.2405 238.12 40.0022 233.341 40.0022H217.097L222.588 34.4421V54.702H210.233ZM222.588 35.8131L217.097 29.9484H232.654C236.468 29.9484 239.315 29.136 241.196 27.5111C243.077 25.8863 244.018 23.6267 244.018 20.7325C244.018 17.7874 243.077 15.5025 241.196 13.8777C239.315 12.2528 236.468 11.4404 232.654 11.4404H217.097L222.588 5.57569V35.8131Z" fill="white"/>
<path d="M255.648 54.702L279.442 1.38663H291.644L315.514 54.702H302.55L283.026 7.63214H287.907L268.307 54.702H255.648ZM267.545 43.2772L270.824 33.909H298.279L301.634 43.2772H267.545Z" fill="white"/>
<path d="M331.046 54.702V32.9188L333.868 40.383L310.379 1.38663H323.496L341.494 31.3194H333.944L352.018 1.38663H364.144L340.655 40.383L343.4 32.9188V54.702H331.046Z" fill="white"/>
</svg>
