<svg width="22" height="23" viewBox="0 0 22 23" fill="none" xmlns="http://www.w3.org/2000/svg">
<path fill-rule="evenodd" clip-rule="evenodd" d="M8.15209 8.10444H12.1756V10.1086C12.7552 8.95594 14.2415 7.92027 16.4743 7.92027C20.7545 7.92027 21.7707 10.2148 21.7707 14.4246V22.2214H17.4373V15.3834C17.4373 12.9859 16.8578 11.6339 15.3823 11.6339C13.3358 11.6339 12.4854 13.091 12.4854 15.3823V22.2214H8.15209V8.10444ZM0.721504 22.0372H5.05484V7.92027H0.721504V22.0372ZM5.67559 3.31719C5.67575 3.6804 5.60371 4.04003 5.46367 4.37516C5.32363 4.71029 5.11838 5.01424 4.85984 5.26935C4.33594 5.79003 3.6268 6.08148 2.88817 6.07969C2.15084 6.07919 1.44334 5.78849 0.918671 5.27044C0.661066 5.01446 0.456505 4.71016 0.31671 4.37499C0.176914 4.03981 0.104631 3.68035 0.104004 3.31719C0.104004 2.58377 0.396504 1.88177 0.919754 1.36394C1.44396 0.845192 2.15176 0.554363 2.88925 0.554688C3.62809 0.554688 4.33659 0.846104 4.85984 1.36394C5.382 1.88177 5.67559 2.58377 5.67559 3.31719Z" fill="white"/>
</svg>
