<svg width="1512" height="5892" viewBox="0 0 1512 5892" fill="none" xmlns="http://www.w3.org/2000/svg">
<g clip-path="url(#clip0_2572_3138)">
<rect width="1512" height="5892" fill="url(#paint0_linear_2572_3138)"/>
<g opacity="0.6" filter="url(#filter0_f_2572_3138)">
<path opacity="0.0526316" d="M-784.395 952.723C-745.715 1044.28 -592.762 1219.54 -290.389 1188.1C87.5759 1148.79 304.966 848.577 657.463 752.824C917.633 682.152 1578.88 643.707 1878.64 943.649" stroke="url(#paint1_linear_2572_3138)" stroke-width="1.45842"/>
<path opacity="0.105263" d="M-801.167 776.843C-772.269 871.945 -638.473 1062.23 -334.47 1062.56C45.5337 1062.98 293.113 787.136 653.689 728.754C919.82 685.664 1581.46 716.549 1848.23 1046.18" stroke="url(#paint2_linear_2572_3138)" stroke-width="1.45842"/>
<path opacity="0.157895" d="M-803.423 602.279C-784.625 699.881 -671.452 903.112 -369.149 935.218C8.72964 975.35 283.786 726.9 648.489 706.528C917.667 691.492 1572.45 791.368 1803.3 1147.08" stroke="url(#paint3_linear_2572_3138)" stroke-width="1.45842"/>
<path opacity="0.210526" d="M-791.375 430.536C-782.882 529.568 -691.573 743.515 -394.282 807.044C-22.6683 886.456 276.851 668.118 641.686 685.98C910.961 699.163 1551.72 866.936 1744.12 1244.83" stroke="url(#paint4_linear_2572_3138)" stroke-width="1.45842"/>
<path opacity="0.263158" d="M-765.397 263.092C-767.302 362.469 -698.856 584.789 -409.834 679.045C-48.5572 796.866 272.144 611.033 633.113 666.932C899.535 708.19 1519.25 942.022 1671.1 1337.96" stroke="url(#paint5_linear_2572_3138)" stroke-width="1.45842"/>
<path opacity="0.315789" d="M-726.011 101.379C-738.294 200.013 -693.462 428.268 -415.876 552.22C-68.8931 707.159 269.476 555.866 622.624 649.19C883.274 718.071 1475.15 1015.4 1584.78 1425.04" stroke="url(#paint6_linear_2572_3138)" stroke-width="1.45842"/>
<path opacity="0.368421" d="M-673.902 -53.227C-696.427 43.5828 -675.7 275.274 -412.591 427.562C-83.7046 617.922 268.625 502.827 610.084 632.555C862.106 728.303 1419.66 1085.87 1485.87 1504.72" stroke="url(#paint7_linear_2572_3138)" stroke-width="1.45842"/>
<path opacity="0.421053" d="M-609.871 -199.429C-642.392 -105.504 -645.997 127.084 -400.248 306.041C-93.0615 529.736 269.369 452.1 595.397 616.809C836.03 738.376 1353.16 1152.27 1375.22 1575.75" stroke="url(#paint8_linear_2572_3138)" stroke-width="1.45842"/>
<path opacity="0.473684" d="M-534.861 -336.053C-577.021 -246.042 -604.919 -15.1036 -379.222 188.56C-97.1007 443.139 271.46 403.813 578.485 601.699C805.092 747.753 1276.12 1213.43 1253.8 1636.9" stroke="url(#paint9_linear_2572_3138)" stroke-width="1.45842"/>
<path opacity="0.526316" d="M-449.945 -461.969C-501.283 -376.858 -553.167 -150.101 -349.995 76.0382C-96.0306 358.713 274.621 358.127 559.28 587.021C769.379 755.963 1189.15 1268.32 1122.69 1687.14" stroke="url(#paint10_linear_2572_3138)" stroke-width="1.45842"/>
<path opacity="0.578947" d="M-356.283 -576.233C-416.237 -496.955 -491.54 -276.864 -313.119 -30.7258C-90.0928 276.947 278.59 315.108 537.763 572.503C729.052 762.481 1092.97 1315.91 983.092 1725.49" stroke="url(#paint11_linear_2572_3138)" stroke-width="1.45842"/>
<path opacity="0.631579" d="M-255.148 -677.977C-323.061 -605.4 -420.956 -394.386 -269.241 -130.946C-79.5976 198.354 283.077 274.844 513.925 557.92C684.308 766.852 988.381 1355.29 836.295 1751.14" stroke="url(#paint12_linear_2572_3138)" stroke-width="1.45842"/>
<path opacity="0.684211" d="M-147.894 -766.482C-223.021 -701.402 -342.437 -501.776 -219.09 -223.921C-64.9065 123.398 287.786 237.378 487.78 543.034C635.39 768.631 876.289 1385.63 683.659 1763.41" stroke="url(#paint13_linear_2572_3138)" stroke-width="1.45842"/>
<path opacity="0.736842" d="M-35.9304 -841.192C-117.448 -784.321 -257.077 -598.271 -163.449 -309.045C-46.4151 52.4881 292.431 202.711 459.379 527.597C582.6 767.388 757.685 1406.19 526.622 1761.76" stroke="url(#paint14_linear_2572_3138)" stroke-width="1.45842"/>
<path opacity="0.789474" d="M79.2754 -901.687C-7.74048 -853.648 -166.052 -683.213 -103.17 -385.784C-24.5668 -13.9985 296.72 170.82 428.794 511.378C526.275 762.735 633.628 1416.34 366.663 1745.81" stroke="url(#paint15_linear_2572_3138)" stroke-width="1.45842"/>
<path opacity="0.842105" d="M196.218 -947.715C104.658 -909.035 -70.6018 -756.082 -39.1538 -453.71C0.156124 -75.7444 300.364 141.645 396.117 494.143C466.79 754.313 505.234 1415.56 205.293 1715.32" stroke="url(#paint16_linear_2572_3138)" stroke-width="1.45842"/>
<path opacity="0.894737" d="M313.37 -979.161C218.268 -950.263 27.9808 -816.467 27.65 -512.464C27.2365 -132.46 303.077 115.119 361.459 475.694C404.549 741.826 373.664 1403.47 44.032 1670.23" stroke="url(#paint17_linear_2572_3138)" stroke-width="1.45842"/>
<path opacity="0.947368" d="M429.209 -996.083C331.607 -977.285 128.377 -864.112 96.2707 -561.809C56.1382 -183.931 304.588 91.1257 324.96 455.829C339.996 725.007 240.12 1379.79 -115.591 1610.64" stroke="url(#paint18_linear_2572_3138)" stroke-width="1.45842"/>
<path d="M542.232 -998.711C443.2 -990.218 229.253 -898.909 165.723 -601.618C86.3117 -230.004 304.65 69.5153 286.788 434.35C273.605 703.625 105.832 1344.39 -272.061 1536.79" stroke="url(#paint19_linear_2572_3138)" stroke-width="1.45842"/>
</g>
<g opacity="0.4" filter="url(#filter1_f_2572_3138)">
<path d="M-315.254 4008.49L-370.901 3587.09L-487.482 3454.32L-837.44 3413.82L-909.471 3163.55L-1198.24 2946.85L-865.975 2704.08L-1021.42 2527.06L-868.661 2299.85L-541.505 2228.11L-676.394 1910.58L-198.913 1319.85L260.125 1842.61L457.724 1791.57L792.895 2173.26L852.093 2434.8L1352.42 2715.56L1366.34 2938.47L1099 3173.23L1072.28 3431.82L722.581 3503.76L489.458 3708.46L615.321 3989.84L258.152 4303.47L-315.254 4008.49Z" stroke="url(#paint20_linear_2572_3138)" stroke-opacity="0.6" stroke-width="1.46"/>
<path d="M54.8613 2966.42L-6.30059 2935.08L-61.9181 2871.74L-64.7887 2796L-30.0192 2745.12L-44.3452 2711.26L6.79314 2648.1L55.6848 2703.78L118.755 2766.83L172.116 2796.67L173.547 2820.46L144.939 2845.58L79.7113 2902.86L93.0823 2932.86L54.8613 2966.42Z" stroke="url(#paint21_linear_2572_3138)" stroke-opacity="0.6" stroke-width="1.46"/>
<path d="M-289.864 3927.77L-343.583 3537.57L-455.474 3410.15L-778.623 3369.85L-845.224 3135.92L-1110.44 2933.93L-802.399 2707.87L-946.985 2541.87L-804.013 2329.7L-500.056 2261.06L-622.689 1970.09L-180.057 1426.94L246.097 1911.92L430.921 1867.23L744.415 2221.86L799.114 2464.19L1261.01 2724.27L1272.76 2931L1024.88 3148.66L995.204 3391.77L672.915 3459.33L458.24 3649.44L572.951 3910.46L241.786 4201.26L-289.864 3927.77Z" stroke="url(#paint22_linear_2572_3138)" stroke-opacity="0.6" stroke-width="1.46"/>
<path d="M-264.48 3847.05L-316.27 3488.06L-423.473 3365.98L-719.812 3325.88L-780.982 3108.29L-1022.65 2921.01L-738.828 2711.67L-872.56 2556.68L-739.371 2359.56L-458.613 2294.01L-568.989 2029.61L-161.206 1534.04L232.063 1981.23L404.113 1942.89L695.928 2270.46L746.13 2493.58L1169.59 2732.98L1179.17 2923.53L950.758 3124.1L918.119 3351.72L623.244 3414.9L427.015 3590.42L530.574 3831.09L225.414 4099.05L-264.48 3847.05Z" stroke="url(#paint23_linear_2572_3138)" stroke-opacity="0.6" stroke-width="1.46"/>
<path d="M-239.094 3766.32L-288.956 3438.55L-391.469 3321.8L-660.999 3281.91L-716.738 3080.66L-934.857 2908.09L-675.256 2715.47L-798.132 2571.49L-674.727 2389.42L-417.168 2326.96L-515.288 2089.12L-142.354 1641.14L218.03 2050.54L377.306 2018.55L647.444 2319.05L693.147 2522.98L1078.18 2741.69L1085.59 2916.06L876.637 3099.54L841.035 3311.67L573.575 3370.47L395.793 3531.4L488.2 3751.71L209.045 3996.84L-239.094 3766.32Z" stroke="url(#paint24_linear_2572_3138)" stroke-opacity="0.6" stroke-width="1.46"/>
<path d="M-213.704 3685.6L-261.638 3389.04L-359.461 3277.63L-602.182 3237.94L-652.491 3053.03L-847.059 2895.17L-611.68 2719.27L-723.701 2586.3L-610.08 2419.28L-375.72 2359.9L-461.583 2148.64L-123.497 1748.24L204.002 2119.85L350.504 2094.21L598.964 2367.65L640.168 2552.37L986.767 2750.4L992.004 2908.59L802.519 3074.98L763.955 3271.63L523.91 3326.05L364.574 3472.38L445.83 3672.34L192.679 3894.63L-213.704 3685.6Z" stroke="url(#paint25_linear_2572_3138)" stroke-opacity="0.6" stroke-width="1.46"/>
<path d="M-188.314 3604.88L-234.32 3339.52L-327.454 3233.46L-543.365 3193.97L-588.243 3025.39L-759.261 2882.25L-548.103 2723.07L-649.27 2601.11L-545.432 2449.14L-334.271 2392.85L-407.877 2208.15L-104.641 1855.33L189.973 2189.16L323.701 2169.87L550.484 2416.24L587.189 2581.76L895.356 2759.11L898.422 2901.12L728.402 3050.41L686.875 3231.58L474.244 3281.62L333.356 3413.36L403.46 3592.97L176.313 3792.42L-188.314 3604.88Z" stroke="url(#paint26_linear_2572_3138)" stroke-opacity="0.6" stroke-width="1.46"/>
<path d="M-162.924 3524.15L-207.002 3290.01L-295.446 3189.28L-484.547 3149.99L-523.996 2997.76L-671.463 2869.33L-484.527 2726.86L-574.839 2615.92L-480.784 2479L-292.822 2425.8L-354.172 2267.66L-85.7843 1962.43L175.945 2258.47L296.899 2245.53L502.003 2464.84L534.21 2611.15L803.946 2767.82L804.84 2893.65L654.285 3025.85L609.795 3191.53L424.579 3237.19L302.137 3354.34L361.089 3513.59L159.947 3690.21L-162.924 3524.15Z" stroke="url(#paint27_linear_2572_3138)" stroke-opacity="0.6" stroke-width="1.46"/>
<path d="M-137.538 3443.43L-179.688 3240.5L-263.442 3145.12L-425.734 3106.03L-459.752 2970.13L-583.669 2856.42L-420.955 2730.67L-500.411 2630.74L-416.141 2508.86L-251.378 2458.75L-300.471 2327.18L-66.9321 2069.53L161.912 2327.78L270.092 2321.2L453.519 2513.44L481.227 2640.55L712.532 2776.54L711.255 2886.18L580.164 3001.29L532.712 3151.48L374.91 3192.76L270.915 3295.32L318.715 3434.22L143.578 3588.01L-137.538 3443.43Z" stroke="url(#paint28_linear_2572_3138)" stroke-opacity="0.6" stroke-width="1.46"/>
<path d="M-112.158 3362.71L-152.379 3190.99L-231.444 3100.95L-366.927 3062.06L-395.514 2942.5L-495.881 2843.5L-357.389 2734.47L-425.99 2645.55L-351.503 2538.73L-209.939 2491.7L-246.775 2386.7L-48.0854 2176.63L147.874 2397.1L243.28 2396.86L405.029 2562.04L428.238 2669.94L621.111 2785.25L617.663 2878.71L506.037 2976.73L455.622 3111.44L325.235 3148.34L239.687 3236.3L276.335 3354.85L127.202 3485.8L-112.158 3362.71Z" stroke="url(#paint29_linear_2572_3138)" stroke-opacity="0.6" stroke-width="1.46"/>
<path d="M-86.7637 3281.98L-125.057 3141.47L-199.433 3056.77L-308.106 3018.09L-331.263 2914.86L-408.08 2830.57L-293.808 2738.26L-351.555 2660.36L-286.851 2568.58L-168.486 2524.64L-193.066 2446.21L-29.2251 2283.72L133.85 2466.4L216.481 2472.52L356.553 2610.63L375.263 2699.33L529.705 2793.95L524.085 2871.24L431.923 2952.17L378.546 3071.39L275.574 3103.91L208.472 3177.28L233.969 3275.47L110.84 3383.59L-86.7637 3281.98Z" stroke="url(#paint30_linear_2572_3138)" stroke-opacity="0.6" stroke-width="1.46"/>
<path d="M-61.3777 3201.26L-97.7432 3091.96L-167.429 3012.6L-249.293 2974.12L-267.019 2887.23L-320.286 2817.66L-230.236 2742.06L-277.127 2675.17L-222.207 2598.44L-127.041 2557.59L-139.365 2505.73L-10.3725 2390.82L119.817 2535.71L189.675 2548.19L308.069 2659.22L322.28 2728.73L438.29 2802.67L430.5 2863.77L357.802 2927.61L301.462 3031.34L225.904 3059.48L177.25 3118.26L191.594 3196.1L94.4704 3281.38L-61.3777 3201.26Z" stroke="url(#paint31_linear_2572_3138)" stroke-opacity="0.6" stroke-width="1.46"/>
<path d="M-35.9917 3120.54L-70.429 3042.45L-135.426 2968.43L-190.48 2930.15L-202.776 2859.6L-232.492 2804.74L-166.664 2745.86L-202.7 2689.98L-157.564 2628.3L-85.5964 2590.54L-85.6636 2565.25L8.47987 2497.92L105.785 2605.02L162.868 2623.85L259.584 2707.82L269.297 2758.12L346.876 2811.38L336.914 2856.3L283.681 2903.04L224.379 2991.29L176.235 3015.05L146.027 3059.24L149.22 3116.72L78.1007 3179.17L-35.9917 3120.54Z" stroke="url(#paint32_linear_2572_3138)" stroke-opacity="0.6" stroke-width="1.46"/>
<path d="M-10.6037 3039.81L-43.1128 2992.93L-103.42 2924.25L-131.665 2886.18L-138.53 2831.97L-144.696 2791.82L-103.09 2749.66L-128.271 2704.79L-92.9179 2658.16L-44.1497 2623.49L-31.9604 2624.76L27.3343 2605.02L91.7543 2674.33L136.064 2699.51L211.102 2756.42L216.317 2787.51L255.464 2820.09L243.331 2848.83L209.562 2878.48L147.297 2951.24L126.568 2970.62L114.807 3000.22L106.848 3037.35L61.733 3076.97L-10.6037 3039.81Z" stroke="url(#paint33_linear_2572_3138)" stroke-opacity="0.6" stroke-width="1.46"/>
</g>
<g filter="url(#filter2_f_2572_3138)">
<path opacity="0.0526316" d="M313.494 3954.74C425.003 3856.64 744.646 3720.11 1131.14 3958.78C1614.26 4257.11 1711.86 4802.28 2124.06 5160.04C2428.29 5424.09 3293.19 5905.21 3891.36 5696.22" stroke="url(#paint34_linear_2572_3138)" stroke-width="1.45842"/>
<path opacity="0.105263" d="M176.714 4180.53C277.359 4071.32 580.979 3902.12 990.303 4099.08C1501.96 4345.29 1656.02 4877.26 2103.35 5189.98C2433.51 5420.78 3343.97 5808.86 3917.02 5538.49" stroke="url(#paint35_linear_2572_3138)" stroke-width="1.45842"/>
<path opacity="0.157895" d="M60.3251 4413.99C149.002 4294.85 433.273 4094.84 860.943 4247.94C1395.53 4439.31 1604.35 4952.27 2081.92 5216.51C2434.4 5411.54 3380.43 5702.33 3922.08 5373.54" stroke="url(#paint36_linear_2572_3138)" stroke-width="1.45842"/>
<path opacity="0.210526" d="M-34.9862 4652.93C40.7512 4525.18 302.559 4296.55 743.889 4404.11C1295.55 4538.55 1556.85 5026.88 2059.42 5239.75C2430.36 5396.86 3401.6 5587.17 3905.91 5203.56" stroke="url(#paint37_linear_2572_3138)" stroke-width="1.45842"/>
<path opacity="0.263158" d="M-108.756 4895.14C-46.788 4760.17 189.687 4505.43 639.843 4566.26C1202.54 4642.31 1513.45 5100.64 2035.52 5259.81C2420.84 5377.3 3406.66 5465.04 3868.11 5030.82" stroke="url(#paint38_linear_2572_3138)" stroke-width="1.45842"/>
<path opacity="0.315789" d="M-160.768 5138.34C-113.247 4997.63 95.3053 4719.57 549.354 4733.01C1116.91 4749.82 1474.03 5173.15 2009.88 5276.88C2405.37 5353.44 3394.96 5337.65 3808.5 4857.58" stroke="url(#paint39_linear_2572_3138)" stroke-width="1.45842"/>
<path opacity="0.368421" d="M-191.034 5380.24C-158.482 5235.33 19.8624 4936.99 472.829 4902.91C1039.04 4860.3 1438.44 5243.97 1982.2 5291.12C2383.53 5325.93 3366.05 5206.79 3727.14 4686.11" stroke="url(#paint40_linear_2572_3138)" stroke-width="1.45842"/>
<path opacity="0.421053" d="M-199.806 5618.56C-182.579 5471.05 -36.3963 5155.7 410.526 5074.45C969.179 4972.89 1406.5 5312.72 1952.21 5302.77C2354.98 5295.43 3319.66 5074.24 3624.35 4518.68" stroke="url(#paint41_linear_2572_3138)" stroke-width="1.45842"/>
<path opacity="0.473684" d="M-187.581 5851.14C-185.869 5702.63 -73.4491 5373.73 362.532 5246.21C907.508 5086.81 1377.96 5379.06 1919.63 5312.13C2319.43 5262.73 3255.71 4941.91 3500.65 4357.54" stroke="url(#paint42_linear_2572_3138)" stroke-width="1.45842"/>
<path opacity="0.526316" d="M-155.071 6075.73C-168.892 5927.86 -91.4673 5589.01 328.796 5416.61C854.125 5201.12 1352.55 5442.6 1884.26 5319.41C2276.7 5228.49 3174.32 4811.57 3356.84 4204.79" stroke="url(#paint43_linear_2572_3138)" stroke-width="1.45842"/>
<path opacity="0.578947" d="M-103.222 6290.32C-132.424 6144.7 -90.8431 5799.61 309.098 5584.23C809.024 5315.01 1329.96 5503.06 1845.88 5324.97C2226.67 5193.53 3075.78 4685.06 3193.88 4062.53" stroke="url(#paint44_linear_2572_3138)" stroke-width="1.45842"/>
<path opacity="0.631579" d="M-33.1885 6492.91C-77.452 6351.14 -72.1698 6003.6 303.067 5747.6C772.113 5427.59 1309.85 5560.16 1804.33 5329.12C2169.29 5158.59 2960.61 4564.16 3012.98 3932.69" stroke="url(#paint45_linear_2572_3138)" stroke-width="1.45842"/>
<path opacity="0.684211" d="M53.6772 6681.67C-5.16286 6545.3 -36.2375 6199.11 310.184 5905.29C743.211 5538 1291.86 5613.64 1759.48 5332.17C2104.62 5124.43 2829.46 4450.54 2815.55 3817.06" stroke="url(#paint46_linear_2572_3138)" stroke-width="1.45842"/>
<path opacity="0.736842" d="M155.836 6854.91C83.0637 6725.44 15.9727 6384.4 329.783 6055.97C722.047 5645.44 1275.59 5663.31 1711.23 5334.51C2032.77 5091.83 2683.2 4345.86 2603.14 3717.3" stroke="url(#paint47_linear_2572_3138)" stroke-width="1.45842"/>
<path opacity="0.789474" d="M271.593 7011.13C185.686 6889.98 83.3139 6557.82 361.076 6198.39C708.278 5749.1 1260.66 5709.02 1659.54 5336.48C1953.95 5061.52 2522.84 4251.64 2377.52 3634.9" stroke="url(#paint48_linear_2572_3138)" stroke-width="1.45842"/>
<path opacity="0.842105" d="M399.075 7149.01C300.976 7037.5 164.444 6717.86 403.113 6331.36C701.451 5848.24 1246.62 5750.64 1604.37 5338.44C1868.43 5034.21 2349.55 4169.31 2140.56 3571.14" stroke="url(#paint49_linear_2572_3138)" stroke-width="1.45842"/>
<path opacity="0.894737" d="M536.314 7267.4C427.096 7166.76 257.9 6863.14 454.862 6453.82C701.066 5942.16 1233.04 5788.1 1545.75 5340.77C1776.56 5010.61 2164.64 4100.15 1894.27 3527.1" stroke="url(#paint50_linear_2572_3138)" stroke-width="1.45842"/>
<path opacity="0.947368" d="M681.213 7365.4C562.073 7276.72 362.067 6992.45 515.165 6564.78C706.537 6030.19 1219.5 5821.37 1483.74 5343.8C1678.76 4991.32 1969.55 4045.29 1640.76 3503.64" stroke="url(#paint51_linear_2572_3138)" stroke-width="1.45842"/>
<path d="M831.608 7442.33C703.852 7366.59 475.227 7104.78 582.782 6663.45C717.226 6111.79 1205.55 5850.49 1418.42 5347.92C1575.54 4976.98 1765.84 4005.74 1382.24 3501.43" stroke="url(#paint52_linear_2572_3138)" stroke-width="1.45842"/>
</g>
</g>
<defs>
<filter id="filter0_f_2572_3138" x="-808.139" y="-1003.44" width="2691.29" height="2771.18" filterUnits="userSpaceOnUse" color-interpolation-filters="sRGB">
<feFlood flood-opacity="0" result="BackgroundImageFix"/>
<feBlend mode="normal" in="SourceGraphic" in2="BackgroundImageFix" result="shape"/>
<feGaussianBlur stdDeviation="2" result="effect1_foregroundBlur_2572_3138"/>
</filter>
<filter id="filter1_f_2572_3138" x="-1203.47" y="1314.71" width="2574.56" height="2993.63" filterUnits="userSpaceOnUse" color-interpolation-filters="sRGB">
<feFlood flood-opacity="0" result="BackgroundImageFix"/>
<feBlend mode="normal" in="SourceGraphic" in2="BackgroundImageFix" result="shape"/>
<feGaussianBlur stdDeviation="2" result="effect1_foregroundBlur_2572_3138"/>
</filter>
<filter id="filter2_f_2572_3138" x="-204.529" y="3496.98" width="4130.99" height="3949.97" filterUnits="userSpaceOnUse" color-interpolation-filters="sRGB">
<feFlood flood-opacity="0" result="BackgroundImageFix"/>
<feBlend mode="normal" in="SourceGraphic" in2="BackgroundImageFix" result="shape"/>
<feGaussianBlur stdDeviation="2" result="effect1_foregroundBlur_2572_3138"/>
</filter>
<linearGradient id="paint0_linear_2572_3138" x1="414.225" y1="163.667" x2="2501.89" y2="892.741" gradientUnits="userSpaceOnUse">
<stop stop-color="#252628"/>
<stop offset="1" stop-color="#050505"/>
</linearGradient>
<linearGradient id="paint1_linear_2572_3138" x1="-779.358" y1="1025.27" x2="1871.53" y2="841.22" gradientUnits="userSpaceOnUse">
<stop stop-color="white" stop-opacity="0.3"/>
<stop offset="0.395833" stop-color="white" stop-opacity="0.32"/>
<stop offset="0.739583" stop-color="white"/>
<stop offset="1" stop-color="white" stop-opacity="0"/>
</linearGradient>
<linearGradient id="paint2_linear_2572_3138" x1="-803.74" y1="849.52" x2="1851.86" y2="943.57" gradientUnits="userSpaceOnUse">
<stop stop-color="white" stop-opacity="0.3"/>
<stop offset="0.395833" stop-color="white" stop-opacity="0.32"/>
<stop offset="0.739583" stop-color="white"/>
<stop offset="1" stop-color="white" stop-opacity="0"/>
</linearGradient>
<linearGradient id="paint3_linear_2572_3138" x1="-813.58" y1="674.289" x2="1817.64" y2="1045.41" gradientUnits="userSpaceOnUse">
<stop stop-color="white" stop-opacity="0.3"/>
<stop offset="0.395833" stop-color="white" stop-opacity="0.32"/>
<stop offset="0.739583" stop-color="white"/>
<stop offset="1" stop-color="white" stop-opacity="0"/>
</linearGradient>
<linearGradient id="paint4_linear_2572_3138" x1="-809.004" y1="501.09" x2="1769.01" y2="1145.22" gradientUnits="userSpaceOnUse">
<stop stop-color="white" stop-opacity="0.3"/>
<stop offset="0.395833" stop-color="white" stop-opacity="0.32"/>
<stop offset="0.739583" stop-color="white"/>
<stop offset="1" stop-color="white" stop-opacity="0"/>
</linearGradient>
<linearGradient id="paint5_linear_2572_3138" x1="-790.303" y1="331.417" x2="1706.26" y2="1241.49" gradientUnits="userSpaceOnUse">
<stop stop-color="white" stop-opacity="0.3"/>
<stop offset="0.395833" stop-color="white" stop-opacity="0.32"/>
<stop offset="0.739583" stop-color="white"/>
<stop offset="1" stop-color="white" stop-opacity="0"/>
</linearGradient>
<linearGradient id="paint6_linear_2572_3138" x1="-757.923" y1="166.726" x2="1629.84" y2="1332.78" gradientUnits="userSpaceOnUse">
<stop stop-color="white" stop-opacity="0.3"/>
<stop offset="0.395833" stop-color="white" stop-opacity="0.32"/>
<stop offset="0.739583" stop-color="white"/>
<stop offset="1" stop-color="white" stop-opacity="0"/>
</linearGradient>
<linearGradient id="paint7_linear_2572_3138" x1="-712.469" y1="8.42644" x2="1540.33" y2="1417.68" gradientUnits="userSpaceOnUse">
<stop stop-color="white" stop-opacity="0.3"/>
<stop offset="0.395833" stop-color="white" stop-opacity="0.32"/>
<stop offset="0.739583" stop-color="white"/>
<stop offset="1" stop-color="white" stop-opacity="0"/>
</linearGradient>
<linearGradient id="paint8_linear_2572_3138" x1="-654.672" y1="-142.145" x2="1438.47" y2="1494.87" gradientUnits="userSpaceOnUse">
<stop stop-color="white" stop-opacity="0.3"/>
<stop offset="0.395833" stop-color="white" stop-opacity="0.32"/>
<stop offset="0.739583" stop-color="white"/>
<stop offset="1" stop-color="white" stop-opacity="0"/>
</linearGradient>
<linearGradient id="paint9_linear_2572_3138" x1="-585.404" y1="-283.765" x2="1325.16" y2="1563.07" gradientUnits="userSpaceOnUse">
<stop stop-color="white" stop-opacity="0.3"/>
<stop offset="0.395833" stop-color="white" stop-opacity="0.32"/>
<stop offset="0.739583" stop-color="white"/>
<stop offset="1" stop-color="white" stop-opacity="0"/>
</linearGradient>
<linearGradient id="paint10_linear_2572_3138" x1="-505.677" y1="-415.251" x2="1201.38" y2="1621.18" gradientUnits="userSpaceOnUse">
<stop stop-color="white" stop-opacity="0.3"/>
<stop offset="0.395833" stop-color="white" stop-opacity="0.32"/>
<stop offset="0.739583" stop-color="white"/>
<stop offset="1" stop-color="white" stop-opacity="0"/>
</linearGradient>
<linearGradient id="paint11_linear_2572_3138" x1="-416.594" y1="-535.597" x2="1068.24" y2="1668.11" gradientUnits="userSpaceOnUse">
<stop stop-color="white" stop-opacity="0.3"/>
<stop offset="0.395833" stop-color="white" stop-opacity="0.32"/>
<stop offset="0.739583" stop-color="white"/>
<stop offset="1" stop-color="white" stop-opacity="0"/>
</linearGradient>
<linearGradient id="paint12_linear_2572_3138" x1="-319.376" y1="-643.867" x2="926.976" y2="1702.98" gradientUnits="userSpaceOnUse">
<stop stop-color="white" stop-opacity="0.3"/>
<stop offset="0.395833" stop-color="white" stop-opacity="0.32"/>
<stop offset="0.739583" stop-color="white"/>
<stop offset="1" stop-color="white" stop-opacity="0"/>
</linearGradient>
<linearGradient id="paint13_linear_2572_3138" x1="-215.335" y1="-739.273" x2="778.877" y2="1724.99" gradientUnits="userSpaceOnUse">
<stop stop-color="white" stop-opacity="0.3"/>
<stop offset="0.395833" stop-color="white" stop-opacity="0.32"/>
<stop offset="0.739583" stop-color="white"/>
<stop offset="1" stop-color="white" stop-opacity="0"/>
</linearGradient>
<linearGradient id="paint14_linear_2572_3138" x1="-105.846" y1="-821.181" x2="625.334" y2="1733.51" gradientUnits="userSpaceOnUse">
<stop stop-color="white" stop-opacity="0.3"/>
<stop offset="0.395833" stop-color="white" stop-opacity="0.32"/>
<stop offset="0.739583" stop-color="white"/>
<stop offset="1" stop-color="white" stop-opacity="0"/>
</linearGradient>
<linearGradient id="paint15_linear_2572_3138" x1="7.65112" y1="-889.094" x2="467.787" y2="1728.03" gradientUnits="userSpaceOnUse">
<stop stop-color="white" stop-opacity="0.3"/>
<stop offset="0.395833" stop-color="white" stop-opacity="0.32"/>
<stop offset="0.739583" stop-color="white"/>
<stop offset="1" stop-color="white" stop-opacity="0"/>
</linearGradient>
<linearGradient id="paint16_linear_2572_3138" x1="123.67" y1="-942.678" x2="307.721" y2="1708.21" gradientUnits="userSpaceOnUse">
<stop stop-color="white" stop-opacity="0.3"/>
<stop offset="0.395833" stop-color="white" stop-opacity="0.32"/>
<stop offset="0.739583" stop-color="white"/>
<stop offset="1" stop-color="white" stop-opacity="0"/>
</linearGradient>
<linearGradient id="paint17_linear_2572_3138" x1="240.693" y1="-981.735" x2="146.643" y2="1673.87" gradientUnits="userSpaceOnUse">
<stop stop-color="white" stop-opacity="0.3"/>
<stop offset="0.395833" stop-color="white" stop-opacity="0.32"/>
<stop offset="0.739583" stop-color="white"/>
<stop offset="1" stop-color="white" stop-opacity="0"/>
</linearGradient>
<linearGradient id="paint18_linear_2572_3138" x1="357.199" y1="-1006.24" x2="-13.922" y2="1624.98" gradientUnits="userSpaceOnUse">
<stop stop-color="white" stop-opacity="0.3"/>
<stop offset="0.395833" stop-color="white" stop-opacity="0.32"/>
<stop offset="0.739583" stop-color="white"/>
<stop offset="1" stop-color="white" stop-opacity="0"/>
</linearGradient>
<linearGradient id="paint19_linear_2572_3138" x1="471.678" y1="-1016.34" x2="-172.448" y2="1561.68" gradientUnits="userSpaceOnUse">
<stop stop-color="white" stop-opacity="0.3"/>
<stop offset="0.395833" stop-color="white" stop-opacity="0.32"/>
<stop offset="0.739583" stop-color="white"/>
<stop offset="1" stop-color="white" stop-opacity="0"/>
</linearGradient>
<linearGradient id="paint20_linear_2572_3138" x1="-758.505" y1="3503.71" x2="824.16" y2="2113.97" gradientUnits="userSpaceOnUse">
<stop stop-color="white" stop-opacity="0.26"/>
<stop offset="0.234375" stop-color="white"/>
<stop offset="0.723958" stop-color="white"/>
<stop offset="0.989583" stop-color="white" stop-opacity="0"/>
</linearGradient>
<linearGradient id="paint21_linear_2572_3138" x1="-53.5108" y1="2881.32" x2="115.852" y2="2732.6" gradientUnits="userSpaceOnUse">
<stop stop-color="white" stop-opacity="0.26"/>
<stop offset="0.234375" stop-color="white"/>
<stop offset="0.723958" stop-color="white"/>
<stop offset="0.989583" stop-color="white" stop-opacity="0"/>
</linearGradient>
<linearGradient id="paint22_linear_2572_3138" x1="-702.392" y1="3457.97" x2="769.982" y2="2165.08" gradientUnits="userSpaceOnUse">
<stop stop-color="white" stop-opacity="0.26"/>
<stop offset="0.234375" stop-color="white"/>
<stop offset="0.723958" stop-color="white"/>
<stop offset="0.989583" stop-color="white" stop-opacity="0"/>
</linearGradient>
<linearGradient id="paint23_linear_2572_3138" x1="-646.284" y1="3412.24" x2="715.798" y2="2216.19" gradientUnits="userSpaceOnUse">
<stop stop-color="white" stop-opacity="0.26"/>
<stop offset="0.234375" stop-color="white"/>
<stop offset="0.723958" stop-color="white"/>
<stop offset="0.989583" stop-color="white" stop-opacity="0"/>
</linearGradient>
<linearGradient id="paint24_linear_2572_3138" x1="-590.175" y1="3366.5" x2="661.616" y2="2267.31" gradientUnits="userSpaceOnUse">
<stop stop-color="white" stop-opacity="0.26"/>
<stop offset="0.234375" stop-color="white"/>
<stop offset="0.723958" stop-color="white"/>
<stop offset="0.989583" stop-color="white" stop-opacity="0"/>
</linearGradient>
<linearGradient id="paint25_linear_2572_3138" x1="-534.062" y1="3320.77" x2="607.438" y2="2318.42" gradientUnits="userSpaceOnUse">
<stop stop-color="white" stop-opacity="0.26"/>
<stop offset="0.234375" stop-color="white"/>
<stop offset="0.723958" stop-color="white"/>
<stop offset="0.989583" stop-color="white" stop-opacity="0"/>
</linearGradient>
<linearGradient id="paint26_linear_2572_3138" x1="-477.948" y1="3275.03" x2="553.261" y2="2369.53" gradientUnits="userSpaceOnUse">
<stop stop-color="white" stop-opacity="0.26"/>
<stop offset="0.234375" stop-color="white"/>
<stop offset="0.723958" stop-color="white"/>
<stop offset="0.989583" stop-color="white" stop-opacity="0"/>
</linearGradient>
<linearGradient id="paint27_linear_2572_3138" x1="-421.835" y1="3229.3" x2="499.083" y2="2420.64" gradientUnits="userSpaceOnUse">
<stop stop-color="white" stop-opacity="0.26"/>
<stop offset="0.234375" stop-color="white"/>
<stop offset="0.723958" stop-color="white"/>
<stop offset="0.989583" stop-color="white" stop-opacity="0"/>
</linearGradient>
<linearGradient id="paint28_linear_2572_3138" x1="-365.725" y1="3183.56" x2="444.901" y2="2471.75" gradientUnits="userSpaceOnUse">
<stop stop-color="white" stop-opacity="0.26"/>
<stop offset="0.234375" stop-color="white"/>
<stop offset="0.723958" stop-color="white"/>
<stop offset="0.989583" stop-color="white" stop-opacity="0"/>
</linearGradient>
<linearGradient id="paint29_linear_2572_3138" x1="-309.622" y1="3137.83" x2="390.713" y2="2522.87" gradientUnits="userSpaceOnUse">
<stop stop-color="white" stop-opacity="0.26"/>
<stop offset="0.234375" stop-color="white"/>
<stop offset="0.723958" stop-color="white"/>
<stop offset="0.989583" stop-color="white" stop-opacity="0"/>
</linearGradient>
<linearGradient id="paint30_linear_2572_3138" x1="-253.505" y1="3092.09" x2="336.539" y2="2573.97" gradientUnits="userSpaceOnUse">
<stop stop-color="white" stop-opacity="0.26"/>
<stop offset="0.234375" stop-color="white"/>
<stop offset="0.723958" stop-color="white"/>
<stop offset="0.989583" stop-color="white" stop-opacity="0"/>
</linearGradient>
<linearGradient id="paint31_linear_2572_3138" x1="-197.395" y1="3046.36" x2="282.358" y2="2625.09" gradientUnits="userSpaceOnUse">
<stop stop-color="white" stop-opacity="0.26"/>
<stop offset="0.234375" stop-color="white"/>
<stop offset="0.723958" stop-color="white"/>
<stop offset="0.989583" stop-color="white" stop-opacity="0"/>
</linearGradient>
<linearGradient id="paint32_linear_2572_3138" x1="-145.109" y1="2996.27" x2="226.409" y2="2670.04" gradientUnits="userSpaceOnUse">
<stop stop-color="white" stop-opacity="0.26"/>
<stop offset="0.234375" stop-color="white"/>
<stop offset="0.723958" stop-color="white"/>
<stop offset="0.989583" stop-color="white" stop-opacity="0"/>
</linearGradient>
<linearGradient id="paint33_linear_2572_3138" x1="-98.1772" y1="2940.08" x2="167.514" y2="2706.78" gradientUnits="userSpaceOnUse">
<stop stop-color="white" stop-opacity="0.26"/>
<stop offset="0.234375" stop-color="white"/>
<stop offset="0.723958" stop-color="white"/>
<stop offset="0.989583" stop-color="white" stop-opacity="0"/>
</linearGradient>
<linearGradient id="paint34_linear_2572_3138" x1="367.382" y1="3860.38" x2="3815.28" y2="5829.45" gradientUnits="userSpaceOnUse">
<stop stop-color="white" stop-opacity="0.3"/>
<stop offset="0.395833" stop-color="white" stop-opacity="0.32"/>
<stop offset="0.739583" stop-color="white"/>
<stop offset="1" stop-color="white" stop-opacity="0"/>
</linearGradient>
<linearGradient id="paint35_linear_2572_3138" x1="220.444" y1="4081.06" x2="3855.27" y2="5678.94" gradientUnits="userSpaceOnUse">
<stop stop-color="white" stop-opacity="0.3"/>
<stop offset="0.395833" stop-color="white" stop-opacity="0.32"/>
<stop offset="0.739583" stop-color="white"/>
<stop offset="1" stop-color="white" stop-opacity="0"/>
</linearGradient>
<linearGradient id="paint36_linear_2572_3138" x1="93.4175" y1="4310.49" x2="3875.36" y2="5519.67" gradientUnits="userSpaceOnUse">
<stop stop-color="white" stop-opacity="0.3"/>
<stop offset="0.395833" stop-color="white" stop-opacity="0.32"/>
<stop offset="0.739583" stop-color="white"/>
<stop offset="1" stop-color="white" stop-opacity="0"/>
</linearGradient>
<linearGradient id="paint37_linear_2572_3138" x1="-12.8941" y1="4546.54" x2="3874.72" y2="5353.78" gradientUnits="userSpaceOnUse">
<stop stop-color="white" stop-opacity="0.3"/>
<stop offset="0.395833" stop-color="white" stop-opacity="0.32"/>
<stop offset="0.739583" stop-color="white"/>
<stop offset="1" stop-color="white" stop-opacity="0"/>
</linearGradient>
<linearGradient id="paint38_linear_2572_3138" x1="-97.9065" y1="4787.02" x2="3852.79" y2="5183.47" gradientUnits="userSpaceOnUse">
<stop stop-color="white" stop-opacity="0.3"/>
<stop offset="0.395833" stop-color="white" stop-opacity="0.32"/>
<stop offset="0.739583" stop-color="white"/>
<stop offset="1" stop-color="white" stop-opacity="0"/>
</linearGradient>
<linearGradient id="paint39_linear_2572_3138" x1="-161.279" y1="5029.68" x2="3809.22" y2="5010.99" gradientUnits="userSpaceOnUse">
<stop stop-color="white" stop-opacity="0.3"/>
<stop offset="0.395833" stop-color="white" stop-opacity="0.32"/>
<stop offset="0.739583" stop-color="white"/>
<stop offset="1" stop-color="white" stop-opacity="0"/>
</linearGradient>
<linearGradient id="paint40_linear_2572_3138" x1="-202.901" y1="5272.23" x2="3743.89" y2="4838.61" gradientUnits="userSpaceOnUse">
<stop stop-color="white" stop-opacity="0.3"/>
<stop offset="0.395833" stop-color="white" stop-opacity="0.32"/>
<stop offset="0.739583" stop-color="white"/>
<stop offset="1" stop-color="white" stop-opacity="0"/>
</linearGradient>
<linearGradient id="paint41_linear_2572_3138" x1="-222.898" y1="5512.38" x2="3656.95" y2="4668.59" gradientUnits="userSpaceOnUse">
<stop stop-color="white" stop-opacity="0.3"/>
<stop offset="0.395833" stop-color="white" stop-opacity="0.32"/>
<stop offset="0.739583" stop-color="white"/>
<stop offset="1" stop-color="white" stop-opacity="0"/>
</linearGradient>
<linearGradient id="paint42_linear_2572_3138" x1="-221.646" y1="5747.95" x2="3548.75" y2="4503.23" gradientUnits="userSpaceOnUse">
<stop stop-color="white" stop-opacity="0.3"/>
<stop offset="0.395833" stop-color="white" stop-opacity="0.32"/>
<stop offset="0.739583" stop-color="white"/>
<stop offset="1" stop-color="white" stop-opacity="0"/>
</linearGradient>
<linearGradient id="paint43_linear_2572_3138" x1="-199.735" y1="5976.67" x2="3419.9" y2="4344.65" gradientUnits="userSpaceOnUse">
<stop stop-color="white" stop-opacity="0.3"/>
<stop offset="0.395833" stop-color="white" stop-opacity="0.32"/>
<stop offset="0.739583" stop-color="white"/>
<stop offset="1" stop-color="white" stop-opacity="0"/>
</linearGradient>
<linearGradient id="paint44_linear_2572_3138" x1="-157.996" y1="6196.47" x2="3271.21" y2="4195.04" gradientUnits="userSpaceOnUse">
<stop stop-color="white" stop-opacity="0.3"/>
<stop offset="0.395833" stop-color="white" stop-opacity="0.32"/>
<stop offset="0.739583" stop-color="white"/>
<stop offset="1" stop-color="white" stop-opacity="0"/>
</linearGradient>
<linearGradient id="paint45_linear_2572_3138" x1="-97.4725" y1="6405.3" x2="3103.75" y2="4056.39" gradientUnits="userSpaceOnUse">
<stop stop-color="white" stop-opacity="0.3"/>
<stop offset="0.395833" stop-color="white" stop-opacity="0.32"/>
<stop offset="0.739583" stop-color="white"/>
<stop offset="1" stop-color="white" stop-opacity="0"/>
</linearGradient>
<linearGradient id="paint46_linear_2572_3138" x1="-19.4125" y1="6601.26" x2="2918.74" y2="3930.59" gradientUnits="userSpaceOnUse">
<stop stop-color="white" stop-opacity="0.3"/>
<stop offset="0.395833" stop-color="white" stop-opacity="0.32"/>
<stop offset="0.739583" stop-color="white"/>
<stop offset="1" stop-color="white" stop-opacity="0"/>
</linearGradient>
<linearGradient id="paint47_linear_2572_3138" x1="74.7412" y1="6782.58" x2="2717.64" y2="3819.42" gradientUnits="userSpaceOnUse">
<stop stop-color="white" stop-opacity="0.3"/>
<stop offset="0.395833" stop-color="white" stop-opacity="0.32"/>
<stop offset="0.739583" stop-color="white"/>
<stop offset="1" stop-color="white" stop-opacity="0"/>
</linearGradient>
<linearGradient id="paint48_linear_2572_3138" x1="183.382" y1="6947.68" x2="2502.07" y2="3724.5" gradientUnits="userSpaceOnUse">
<stop stop-color="white" stop-opacity="0.3"/>
<stop offset="0.395833" stop-color="white" stop-opacity="0.32"/>
<stop offset="0.739583" stop-color="white"/>
<stop offset="1" stop-color="white" stop-opacity="0"/>
</linearGradient>
<linearGradient id="paint49_linear_2572_3138" x1="304.715" y1="7095.12" x2="2273.78" y2="3647.23" gradientUnits="userSpaceOnUse">
<stop stop-color="white" stop-opacity="0.3"/>
<stop offset="0.395833" stop-color="white" stop-opacity="0.32"/>
<stop offset="0.739583" stop-color="white"/>
<stop offset="1" stop-color="white" stop-opacity="0"/>
</linearGradient>
<linearGradient id="paint50_linear_2572_3138" x1="436.837" y1="7223.67" x2="2034.72" y2="3588.84" gradientUnits="userSpaceOnUse">
<stop stop-color="white" stop-opacity="0.3"/>
<stop offset="0.395833" stop-color="white" stop-opacity="0.32"/>
<stop offset="0.739583" stop-color="white"/>
<stop offset="1" stop-color="white" stop-opacity="0"/>
</linearGradient>
<linearGradient id="paint51_linear_2572_3138" x1="577.711" y1="7332.31" x2="1786.89" y2="3550.37" gradientUnits="userSpaceOnUse">
<stop stop-color="white" stop-opacity="0.3"/>
<stop offset="0.395833" stop-color="white" stop-opacity="0.32"/>
<stop offset="0.739583" stop-color="white"/>
<stop offset="1" stop-color="white" stop-opacity="0"/>
</linearGradient>
<linearGradient id="paint52_linear_2572_3138" x1="725.214" y1="7420.23" x2="1532.45" y2="3532.62" gradientUnits="userSpaceOnUse">
<stop stop-color="white" stop-opacity="0.3"/>
<stop offset="0.395833" stop-color="white" stop-opacity="0.32"/>
<stop offset="0.739583" stop-color="white"/>
<stop offset="1" stop-color="white" stop-opacity="0"/>
</linearGradient>
<clipPath id="clip0_2572_3138">
<rect width="1512" height="5892" fill="white"/>
</clipPath>
</defs>
</svg>
