<svg width="25" height="25" viewBox="0 0 25 25" fill="none" xmlns="http://www.w3.org/2000/svg">
<g id="material-symbols:search">
<path id="Vector" d="M19.8725 21.3047L13.5725 15.0047C13.0725 15.4047 12.4975 15.7214 11.8475 15.9547C11.1975 16.188 10.5058 16.3047 9.77246 16.3047C7.95579 16.3047 6.41846 15.6754 5.16046 14.4167C3.90246 13.158 3.27313 11.6207 3.27246 9.80469C3.27246 7.98802 3.90179 6.45069 5.16046 5.19269C6.41913 3.93469 7.95646 3.30535 9.77246 3.30469C11.5891 3.30469 13.1265 3.93402 14.3845 5.19269C15.6425 6.45135 16.2718 7.98869 16.2725 9.80469C16.2725 10.538 16.1558 11.2297 15.9225 11.8797C15.6891 12.5297 15.3725 13.1047 14.9725 13.6047L21.2725 19.9047L19.8725 21.3047ZM9.77246 14.3047C11.0225 14.3047 12.0851 13.867 12.9605 12.9917C13.8358 12.1164 14.2731 11.054 14.2725 9.80469C14.2725 8.55469 13.8348 7.49202 12.9595 6.61669C12.0841 5.74135 11.0218 5.30402 9.77246 5.30469C8.52246 5.30469 7.45979 5.74235 6.58446 6.61769C5.70913 7.49302 5.27179 8.55535 5.27246 9.80469C5.27246 11.0547 5.71013 12.1174 6.58546 12.9927C7.46079 13.868 8.52313 14.3054 9.77246 14.3047Z" fill="#888888"/>
</g>
</svg>
